<svg viewBox="0 0 723 356" fill="none" xmlns="http://www.w3.org/2000/svg">
<rect x="0.5" y="0.5" width="722" height="355" rx="7.5" stroke="#F1F1F1"/>
<rect x="3" y="1" width="718" height="354" rx="15" fill="white"/>
<path d="M20.48 80.068V79.24L24.692 73.408H26V79.12H27.2V80.068H26V82H24.92V80.068H20.48ZM24.968 74.548L21.74 79.12H24.968V74.548ZM28.2909 77.572C28.2909 76.196 28.5149 75.124 28.9629 74.356C29.4109 73.58 30.1949 73.192 31.3149 73.192C32.4269 73.192 33.2069 73.58 33.6549 74.356C34.1029 75.124 34.3269 76.196 34.3269 77.572C34.3269 78.972 34.1029 80.06 33.6549 80.836C33.2069 81.612 32.4269 82 31.3149 82C30.1949 82 29.4109 81.612 28.9629 80.836C28.5149 80.06 28.2909 78.972 28.2909 77.572ZM33.2469 77.572C33.2469 76.876 33.1989 76.288 33.1029 75.808C33.0149 75.32 32.8269 74.928 32.5389 74.632C32.2589 74.336 31.8509 74.188 31.3149 74.188C30.7709 74.188 30.3549 74.336 30.0669 74.632C29.7869 74.928 29.5989 75.32 29.5029 75.808C29.4149 76.288 29.3709 76.876 29.3709 77.572C29.3709 78.292 29.4149 78.896 29.5029 79.384C29.5989 79.872 29.7869 80.264 30.0669 80.56C30.3549 80.856 30.7709 81.004 31.3149 81.004C31.8509 81.004 32.2589 80.856 32.5389 80.56C32.8269 80.264 33.0149 79.872 33.1029 79.384C33.1989 78.896 33.2469 78.292 33.2469 77.572ZM35.826 77.572C35.826 76.196 36.05 75.124 36.498 74.356C36.946 73.58 37.73 73.192 38.85 73.192C39.962 73.192 40.742 73.58 41.19 74.356C41.638 75.124 41.862 76.196 41.862 77.572C41.862 78.972 41.638 80.06 41.19 80.836C40.742 81.612 39.962 82 38.85 82C37.73 82 36.946 81.612 36.498 80.836C36.05 80.06 35.826 78.972 35.826 77.572ZM40.782 77.572C40.782 76.876 40.734 76.288 40.638 75.808C40.55 75.32 40.362 74.928 40.074 74.632C39.794 74.336 39.386 74.188 38.85 74.188C38.306 74.188 37.89 74.336 37.602 74.632C37.322 74.928 37.134 75.32 37.038 75.808C36.95 76.288 36.906 76.876 36.906 77.572C36.906 78.292 36.95 78.896 37.038 79.384C37.134 79.872 37.322 80.264 37.602 80.56C37.89 80.856 38.306 81.004 38.85 81.004C39.386 81.004 39.794 80.856 40.074 80.56C40.362 80.264 40.55 79.872 40.638 79.384C40.734 78.896 40.782 78.292 40.782 77.572ZM43.3612 77.572C43.3612 76.196 43.5852 75.124 44.0332 74.356C44.4812 73.58 45.2652 73.192 46.3852 73.192C47.4972 73.192 48.2772 73.58 48.7252 74.356C49.1732 75.124 49.3972 76.196 49.3972 77.572C49.3972 78.972 49.1732 80.06 48.7252 80.836C48.2772 81.612 47.4972 82 46.3852 82C45.2652 82 44.4812 81.612 44.0332 80.836C43.5852 80.06 43.3612 78.972 43.3612 77.572ZM48.3172 77.572C48.3172 76.876 48.2692 76.288 48.1732 75.808C48.0852 75.32 47.8972 74.928 47.6092 74.632C47.3292 74.336 46.9212 74.188 46.3852 74.188C45.8412 74.188 45.4252 74.336 45.1372 74.632C44.8572 74.928 44.6692 75.32 44.5732 75.808C44.4852 76.288 44.4412 76.876 44.4412 77.572C44.4412 78.292 44.4852 78.896 44.5732 79.384C44.6692 79.872 44.8572 80.264 45.1372 80.56C45.4252 80.856 45.8412 81.004 46.3852 81.004C46.9212 81.004 47.3292 80.856 47.6092 80.56C47.8972 80.264 48.0852 79.872 48.1732 79.384C48.2692 78.896 48.3172 78.292 48.3172 77.572Z" fill="#A9A9A9"/>
<path d="M20.72 126.508C20.776 125.772 21.06 125.196 21.572 124.78C22.084 124.364 22.748 124.156 23.564 124.156C24.108 124.156 24.576 124.256 24.968 124.456C25.368 124.648 25.668 124.912 25.868 125.248C26.076 125.584 26.18 125.964 26.18 126.388C26.18 126.884 26.036 127.312 25.748 127.672C25.468 128.032 25.1 128.264 24.644 128.368V128.428C25.164 128.556 25.576 128.808 25.88 129.184C26.184 129.56 26.336 130.052 26.336 130.66C26.336 131.116 26.232 131.528 26.024 131.896C25.816 132.256 25.504 132.54 25.088 132.748C24.672 132.956 24.172 133.06 23.588 133.06C22.74 133.06 22.044 132.84 21.5 132.4C20.956 131.952 20.652 131.32 20.588 130.504H21.644C21.7 130.984 21.896 131.376 22.232 131.68C22.568 131.984 23.016 132.136 23.576 132.136C24.136 132.136 24.56 131.992 24.848 131.704C25.144 131.408 25.292 131.028 25.292 130.564C25.292 129.964 25.092 129.532 24.692 129.268C24.292 129.004 23.688 128.872 22.88 128.872H22.604V127.96H22.892C23.628 127.952 24.184 127.832 24.56 127.6C24.936 127.36 25.124 126.992 25.124 126.496C25.124 126.072 24.984 125.732 24.704 125.476C24.432 125.22 24.04 125.092 23.528 125.092C23.032 125.092 22.632 125.22 22.328 125.476C22.024 125.732 21.844 126.076 21.788 126.508H20.72ZM27.8104 128.572C27.8104 127.196 28.0344 126.124 28.4824 125.356C28.9304 124.58 29.7144 124.192 30.8344 124.192C31.9464 124.192 32.7264 124.58 33.1744 125.356C33.6224 126.124 33.8464 127.196 33.8464 128.572C33.8464 129.972 33.6224 131.06 33.1744 131.836C32.7264 132.612 31.9464 133 30.8344 133C29.7144 133 28.9304 132.612 28.4824 131.836C28.0344 131.06 27.8104 129.972 27.8104 128.572ZM32.7664 128.572C32.7664 127.876 32.7184 127.288 32.6224 126.808C32.5344 126.32 32.3464 125.928 32.0584 125.632C31.7784 125.336 31.3704 125.188 30.8344 125.188C30.2904 125.188 29.8744 125.336 29.5864 125.632C29.3064 125.928 29.1184 126.32 29.0224 126.808C28.9344 127.288 28.8904 127.876 28.8904 128.572C28.8904 129.292 28.9344 129.896 29.0224 130.384C29.1184 130.872 29.3064 131.264 29.5864 131.56C29.8744 131.856 30.2904 132.004 30.8344 132.004C31.3704 132.004 31.7784 131.856 32.0584 131.56C32.3464 131.264 32.5344 130.872 32.6224 130.384C32.7184 129.896 32.7664 129.292 32.7664 128.572ZM35.3456 128.572C35.3456 127.196 35.5696 126.124 36.0176 125.356C36.4656 124.58 37.2496 124.192 38.3696 124.192C39.4816 124.192 40.2616 124.58 40.7096 125.356C41.1576 126.124 41.3816 127.196 41.3816 128.572C41.3816 129.972 41.1576 131.06 40.7096 131.836C40.2616 132.612 39.4816 133 38.3696 133C37.2496 133 36.4656 132.612 36.0176 131.836C35.5696 131.06 35.3456 129.972 35.3456 128.572ZM40.3016 128.572C40.3016 127.876 40.2536 127.288 40.1576 126.808C40.0696 126.32 39.8816 125.928 39.5936 125.632C39.3136 125.336 38.9056 125.188 38.3696 125.188C37.8256 125.188 37.4096 125.336 37.1216 125.632C36.8416 125.928 36.6536 126.32 36.5576 126.808C36.4696 127.288 36.4256 127.876 36.4256 128.572C36.4256 129.292 36.4696 129.896 36.5576 130.384C36.6536 130.872 36.8416 131.264 37.1216 131.56C37.4096 131.856 37.8256 132.004 38.3696 132.004C38.9056 132.004 39.3136 131.856 39.5936 131.56C39.8816 131.264 40.0696 130.872 40.1576 130.384C40.2536 129.896 40.3016 129.292 40.3016 128.572ZM42.8807 128.572C42.8807 127.196 43.1047 126.124 43.5527 125.356C44.0007 124.58 44.7847 124.192 45.9047 124.192C47.0167 124.192 47.7967 124.58 48.2447 125.356C48.6927 126.124 48.9167 127.196 48.9167 128.572C48.9167 129.972 48.6927 131.06 48.2447 131.836C47.7967 132.612 47.0167 133 45.9047 133C44.7847 133 44.0007 132.612 43.5527 131.836C43.1047 131.06 42.8807 129.972 42.8807 128.572ZM47.8367 128.572C47.8367 127.876 47.7887 127.288 47.6927 126.808C47.6047 126.32 47.4167 125.928 47.1287 125.632C46.8487 125.336 46.4407 125.188 45.9047 125.188C45.3607 125.188 44.9447 125.336 44.6567 125.632C44.3767 125.928 44.1887 126.32 44.0927 126.808C44.0047 127.288 43.9607 127.876 43.9607 128.572C43.9607 129.292 44.0047 129.896 44.0927 130.384C44.1887 130.872 44.3767 131.264 44.6567 131.56C44.9447 131.856 45.3607 132.004 45.9047 132.004C46.4407 132.004 46.8487 131.856 47.1287 131.56C47.4167 131.264 47.6047 130.872 47.6927 130.384C47.7887 129.896 47.8367 129.292 47.8367 128.572Z" fill="#A9A9A9"/>
<path d="M20.612 183.124C21.628 182.308 22.424 181.64 23 181.12C23.576 180.592 24.06 180.044 24.452 179.476C24.852 178.9 25.052 178.336 25.052 177.784C25.052 177.264 24.924 176.856 24.668 176.56C24.42 176.256 24.016 176.104 23.456 176.104C22.912 176.104 22.488 176.276 22.184 176.62C21.888 176.956 21.728 177.408 21.704 177.976H20.648C20.68 177.08 20.952 176.388 21.464 175.9C21.976 175.412 22.636 175.168 23.444 175.168C24.268 175.168 24.92 175.396 25.4 175.852C25.888 176.308 26.132 176.936 26.132 177.736C26.132 178.4 25.932 179.048 25.532 179.68C25.14 180.304 24.692 180.856 24.188 181.336C23.684 181.808 23.04 182.36 22.256 182.992H26.384V183.904H20.612V183.124ZM27.6463 179.572C27.6463 178.196 27.8703 177.124 28.3183 176.356C28.7663 175.58 29.5503 175.192 30.6703 175.192C31.7823 175.192 32.5623 175.58 33.0103 176.356C33.4583 177.124 33.6823 178.196 33.6823 179.572C33.6823 180.972 33.4583 182.06 33.0103 182.836C32.5623 183.612 31.7823 184 30.6703 184C29.5503 184 28.7663 183.612 28.3183 182.836C27.8703 182.06 27.6463 180.972 27.6463 179.572ZM32.6023 179.572C32.6023 178.876 32.5543 178.288 32.4583 177.808C32.3703 177.32 32.1823 176.928 31.8943 176.632C31.6143 176.336 31.2063 176.188 30.6703 176.188C30.1263 176.188 29.7103 176.336 29.4223 176.632C29.1423 176.928 28.9543 177.32 28.8583 177.808C28.7703 178.288 28.7263 178.876 28.7263 179.572C28.7263 180.292 28.7703 180.896 28.8583 181.384C28.9543 181.872 29.1423 182.264 29.4223 182.56C29.7103 182.856 30.1263 183.004 30.6703 183.004C31.2063 183.004 31.6143 182.856 31.8943 182.56C32.1823 182.264 32.3703 181.872 32.4583 181.384C32.5543 180.896 32.6023 180.292 32.6023 179.572ZM35.1815 179.572C35.1815 178.196 35.4055 177.124 35.8535 176.356C36.3015 175.58 37.0855 175.192 38.2055 175.192C39.3175 175.192 40.0975 175.58 40.5455 176.356C40.9935 177.124 41.2175 178.196 41.2175 179.572C41.2175 180.972 40.9935 182.06 40.5455 182.836C40.0975 183.612 39.3175 184 38.2055 184C37.0855 184 36.3015 183.612 35.8535 182.836C35.4055 182.06 35.1815 180.972 35.1815 179.572ZM40.1375 179.572C40.1375 178.876 40.0895 178.288 39.9935 177.808C39.9055 177.32 39.7175 176.928 39.4295 176.632C39.1495 176.336 38.7415 176.188 38.2055 176.188C37.6615 176.188 37.2455 176.336 36.9575 176.632C36.6775 176.928 36.4895 177.32 36.3935 177.808C36.3055 178.288 36.2615 178.876 36.2615 179.572C36.2615 180.292 36.3055 180.896 36.3935 181.384C36.4895 181.872 36.6775 182.264 36.9575 182.56C37.2455 182.856 37.6615 183.004 38.2055 183.004C38.7415 183.004 39.1495 182.856 39.4295 182.56C39.7175 182.264 39.9055 181.872 39.9935 181.384C40.0895 180.896 40.1375 180.292 40.1375 179.572ZM42.7167 179.572C42.7167 178.196 42.9407 177.124 43.3887 176.356C43.8367 175.58 44.6207 175.192 45.7407 175.192C46.8527 175.192 47.6327 175.58 48.0807 176.356C48.5287 177.124 48.7527 178.196 48.7527 179.572C48.7527 180.972 48.5287 182.06 48.0807 182.836C47.6327 183.612 46.8527 184 45.7407 184C44.6207 184 43.8367 183.612 43.3887 182.836C42.9407 182.06 42.7167 180.972 42.7167 179.572ZM47.6727 179.572C47.6727 178.876 47.6247 178.288 47.5287 177.808C47.4407 177.32 47.2527 176.928 46.9647 176.632C46.6847 176.336 46.2767 176.188 45.7407 176.188C45.1967 176.188 44.7807 176.336 44.4927 176.632C44.2127 176.928 44.0247 177.32 43.9287 177.808C43.8407 178.288 43.7967 178.876 43.7967 179.572C43.7967 180.292 43.8407 180.896 43.9287 181.384C44.0247 181.872 44.2127 182.264 44.4927 182.56C44.7807 182.856 45.1967 183.004 45.7407 183.004C46.2767 183.004 46.6847 182.856 46.9647 182.56C47.2527 182.264 47.4407 181.872 47.5287 181.384C47.6247 180.896 47.6727 180.292 47.6727 179.572Z" fill="#A9A9A9"/>
<path d="M20.456 227.32V226.324H22.712V235H21.608V227.32H20.456ZM24.5878 230.572C24.5878 229.196 24.8118 228.124 25.2598 227.356C25.7078 226.58 26.4918 226.192 27.6118 226.192C28.7238 226.192 29.5038 226.58 29.9518 227.356C30.3997 228.124 30.6237 229.196 30.6237 230.572C30.6237 231.972 30.3997 233.06 29.9518 233.836C29.5038 234.612 28.7238 235 27.6118 235C26.4918 235 25.7078 234.612 25.2598 233.836C24.8118 233.06 24.5878 231.972 24.5878 230.572ZM29.5438 230.572C29.5438 229.876 29.4958 229.288 29.3998 228.808C29.3118 228.32 29.1238 227.928 28.8358 227.632C28.5558 227.336 28.1478 227.188 27.6118 227.188C27.0678 227.188 26.6518 227.336 26.3638 227.632C26.0838 227.928 25.8958 228.32 25.7998 228.808C25.7118 229.288 25.6678 229.876 25.6678 230.572C25.6678 231.292 25.7118 231.896 25.7998 232.384C25.8958 232.872 26.0838 233.264 26.3638 233.56C26.6518 233.856 27.0678 234.004 27.6118 234.004C28.1478 234.004 28.5558 233.856 28.8358 233.56C29.1238 233.264 29.3118 232.872 29.3998 232.384C29.4958 231.896 29.5438 231.292 29.5438 230.572ZM32.1229 230.572C32.1229 229.196 32.3469 228.124 32.7949 227.356C33.2429 226.58 34.0269 226.192 35.1469 226.192C36.2589 226.192 37.0389 226.58 37.4869 227.356C37.9349 228.124 38.1589 229.196 38.1589 230.572C38.1589 231.972 37.9349 233.06 37.4869 233.836C37.0389 234.612 36.2589 235 35.1469 235C34.0269 235 33.2429 234.612 32.7949 233.836C32.3469 233.06 32.1229 231.972 32.1229 230.572ZM37.0789 230.572C37.0789 229.876 37.0309 229.288 36.9349 228.808C36.8469 228.32 36.6589 227.928 36.3709 227.632C36.0909 227.336 35.6829 227.188 35.1469 227.188C34.6029 227.188 34.1869 227.336 33.8989 227.632C33.6189 227.928 33.4309 228.32 33.3349 228.808C33.2469 229.288 33.2029 229.876 33.2029 230.572C33.2029 231.292 33.2469 231.896 33.3349 232.384C33.4309 232.872 33.6189 233.264 33.8989 233.56C34.1869 233.856 34.6029 234.004 35.1469 234.004C35.6829 234.004 36.0909 233.856 36.3709 233.56C36.6589 233.264 36.8469 232.872 36.9349 232.384C37.0309 231.896 37.0789 231.292 37.0789 230.572ZM39.6581 230.572C39.6581 229.196 39.8821 228.124 40.3301 227.356C40.7781 226.58 41.5621 226.192 42.6821 226.192C43.7941 226.192 44.5741 226.58 45.0221 227.356C45.4701 228.124 45.6941 229.196 45.6941 230.572C45.6941 231.972 45.4701 233.06 45.0221 233.836C44.5741 234.612 43.7941 235 42.6821 235C41.5621 235 40.7781 234.612 40.3301 233.836C39.8821 233.06 39.6581 231.972 39.6581 230.572ZM44.6141 230.572C44.6141 229.876 44.5661 229.288 44.4701 228.808C44.3821 228.32 44.1941 227.928 43.9061 227.632C43.6261 227.336 43.2181 227.188 42.6821 227.188C42.1381 227.188 41.7221 227.336 41.4341 227.632C41.1541 227.928 40.9661 228.32 40.8701 228.808C40.7821 229.288 40.7381 229.876 40.7381 230.572C40.7381 231.292 40.7821 231.896 40.8701 232.384C40.9661 232.872 41.1541 233.264 41.4341 233.56C41.7221 233.856 42.1381 234.004 42.6821 234.004C43.2181 234.004 43.6261 233.856 43.9061 233.56C44.1941 233.264 44.3821 232.872 44.4701 232.384C44.5661 231.896 44.6141 231.292 44.6141 230.572Z" fill="#A9A9A9"/>
<path d="M20.744 281.572C20.744 280.196 20.968 279.124 21.416 278.356C21.864 277.58 22.648 277.192 23.768 277.192C24.88 277.192 25.66 277.58 26.108 278.356C26.556 279.124 26.78 280.196 26.78 281.572C26.78 282.972 26.556 284.06 26.108 284.836C25.66 285.612 24.88 286 23.768 286C22.648 286 21.864 285.612 21.416 284.836C20.968 284.06 20.744 282.972 20.744 281.572ZM25.7 281.572C25.7 280.876 25.652 280.288 25.556 279.808C25.468 279.32 25.28 278.928 24.992 278.632C24.712 278.336 24.304 278.188 23.768 278.188C23.224 278.188 22.808 278.336 22.52 278.632C22.24 278.928 22.052 279.32 21.956 279.808C21.868 280.288 21.824 280.876 21.824 281.572C21.824 282.292 21.868 282.896 21.956 283.384C22.052 283.872 22.24 284.264 22.52 284.56C22.808 284.856 23.224 285.004 23.768 285.004C24.304 285.004 24.712 284.856 24.992 284.56C25.28 284.264 25.468 283.872 25.556 283.384C25.652 282.896 25.7 282.292 25.7 281.572Z" fill="#A9A9A9"/>
<path d="M64.992 316.54V322.828C64.992 323.524 64.792 324.076 64.392 324.484C64 324.884 63.448 325.084 62.736 325.084C61.968 325.084 61.364 324.86 60.924 324.412C60.492 323.956 60.276 323.32 60.276 322.504H61.368C61.368 322.992 61.476 323.38 61.692 323.668C61.908 323.948 62.24 324.088 62.688 324.088C63.112 324.088 63.42 323.968 63.612 323.728C63.804 323.488 63.9 323.188 63.9 322.828V316.54H64.992ZM69.3885 318.328C70.0285 318.328 70.5685 318.488 71.0085 318.808C71.4565 319.128 71.7685 319.556 71.9445 320.092V318.412H73.0365V325H71.9445V323.32C71.7685 323.856 71.4565 324.284 71.0085 324.604C70.5685 324.924 70.0285 325.084 69.3885 325.084C68.8045 325.084 68.2845 324.948 67.8285 324.676C67.3725 324.404 67.0125 324.016 66.7485 323.512C66.4925 323 66.3645 322.4 66.3645 321.712C66.3645 321.024 66.4925 320.424 66.7485 319.912C67.0125 319.4 67.3725 319.008 67.8285 318.736C68.2845 318.464 68.8045 318.328 69.3885 318.328ZM69.7005 319.3C69.0285 319.3 68.4885 319.516 68.0805 319.948C67.6805 320.372 67.4805 320.96 67.4805 321.712C67.4805 322.464 67.6805 323.056 68.0805 323.488C68.4885 323.912 69.0285 324.124 69.7005 324.124C70.1325 324.124 70.5165 324.024 70.8525 323.824C71.1965 323.624 71.4645 323.344 71.6565 322.984C71.8485 322.616 71.9445 322.192 71.9445 321.712C71.9445 321.232 71.8485 320.808 71.6565 320.44C71.4645 320.072 71.1965 319.792 70.8525 319.6C70.5165 319.4 70.1325 319.3 69.7005 319.3ZM78.2424 318.304C79.0104 318.304 79.6304 318.552 80.1024 319.048C80.5744 319.536 80.8104 320.244 80.8104 321.172V325H79.7184V321.268C79.7184 320.612 79.5504 320.108 79.2144 319.756C78.8784 319.404 78.4224 319.228 77.8464 319.228C77.2464 319.228 76.7664 319.424 76.4064 319.816C76.0464 320.2 75.8664 320.764 75.8664 321.508V325H74.7744V318.412H75.8664V319.972C76.0344 319.436 76.3304 319.024 76.7544 318.736C77.1864 318.448 77.6824 318.304 78.2424 318.304Z" fill="#A9A9A9"/>
<path d="M120.664 316.54V317.428H116.968V320.356H120.1V321.208H116.968V325H115.876V316.54H120.664ZM128.018 321.34C128.018 321.572 128.002 321.772 127.97 321.94H122.702C122.726 322.692 122.938 323.256 123.338 323.632C123.746 324.008 124.242 324.196 124.826 324.196C125.354 324.196 125.794 324.064 126.146 323.8C126.506 323.528 126.726 323.168 126.806 322.72H127.97C127.89 323.176 127.71 323.584 127.43 323.944C127.158 324.304 126.802 324.584 126.362 324.784C125.922 324.984 125.426 325.084 124.874 325.084C124.242 325.084 123.682 324.948 123.194 324.676C122.706 324.404 122.322 324.016 122.042 323.512C121.77 323 121.634 322.4 121.634 321.712C121.634 321.024 121.77 320.424 122.042 319.912C122.322 319.4 122.706 319.008 123.194 318.736C123.682 318.464 124.242 318.328 124.874 318.328C125.514 318.328 126.07 318.464 126.542 318.736C127.022 319.008 127.386 319.372 127.634 319.828C127.89 320.284 128.018 320.788 128.018 321.34ZM126.914 321.412C126.938 320.924 126.858 320.516 126.674 320.188C126.49 319.86 126.238 319.616 125.918 319.456C125.598 319.296 125.25 319.216 124.874 319.216C124.274 319.216 123.77 319.404 123.362 319.78C122.954 320.148 122.734 320.692 122.702 321.412H126.914ZM133.082 318.328C133.666 318.328 134.186 318.464 134.642 318.736C135.098 319.008 135.454 319.4 135.71 319.912C135.974 320.424 136.106 321.024 136.106 321.712C136.106 322.4 135.974 323 135.71 323.512C135.454 324.016 135.098 324.404 134.642 324.676C134.186 324.948 133.666 325.084 133.082 325.084C132.442 325.084 131.898 324.924 131.45 324.604C131.01 324.276 130.706 323.848 130.538 323.32V325H129.446V316.12H130.538V320.092C130.706 319.564 131.01 319.14 131.45 318.82C131.898 318.492 132.442 318.328 133.082 318.328ZM132.77 319.3C132.346 319.3 131.962 319.4 131.618 319.6C131.274 319.792 131.006 320.072 130.814 320.44C130.622 320.808 130.526 321.232 130.526 321.712C130.526 322.192 130.622 322.616 130.814 322.984C131.006 323.344 131.274 323.624 131.618 323.824C131.962 324.024 132.346 324.124 132.77 324.124C133.45 324.124 133.99 323.912 134.39 323.488C134.798 323.056 135.002 322.464 135.002 321.712C135.002 320.96 134.798 320.372 134.39 319.948C133.99 319.516 133.45 319.3 132.77 319.3Z" fill="#A9A9A9"/>
<path d="M179.348 316.684V325H178.256V318.364L175.604 325H174.632L171.968 318.388V325H170.876V316.684H172.184L175.136 323.668L178.04 316.684H179.348ZM183.795 318.328C184.435 318.328 184.975 318.488 185.415 318.808C185.863 319.128 186.175 319.556 186.351 320.092V318.412H187.443V325H186.351V323.32C186.175 323.856 185.863 324.284 185.415 324.604C184.975 324.924 184.435 325.084 183.795 325.084C183.211 325.084 182.691 324.948 182.235 324.676C181.779 324.404 181.419 324.016 181.155 323.512C180.899 323 180.771 322.4 180.771 321.712C180.771 321.024 180.899 320.424 181.155 319.912C181.419 319.4 181.779 319.008 182.235 318.736C182.691 318.464 183.211 318.328 183.795 318.328ZM184.107 319.3C183.435 319.3 182.895 319.516 182.487 319.948C182.087 320.372 181.887 320.96 181.887 321.712C181.887 322.464 182.087 323.056 182.487 323.488C182.895 323.912 183.435 324.124 184.107 324.124C184.539 324.124 184.923 324.024 185.259 323.824C185.603 323.624 185.871 323.344 186.063 322.984C186.255 322.616 186.351 322.192 186.351 321.712C186.351 321.232 186.255 320.808 186.063 320.44C185.871 320.072 185.603 319.792 185.259 319.6C184.923 319.4 184.539 319.3 184.107 319.3ZM190.273 319.744C190.489 319.288 190.805 318.936 191.221 318.688C191.637 318.432 192.133 318.304 192.709 318.304V319.492H192.373C191.757 319.492 191.253 319.652 190.861 319.972C190.469 320.284 190.273 320.804 190.273 321.532V325H189.181V318.412H190.273V319.744Z" fill="#A9A9A9"/>
<path d="M231.832 323.044H228.112L227.404 325H226.228L229.36 316.696H230.596L233.716 325H232.54L231.832 323.044ZM231.52 322.192L229.972 317.92L228.424 322.192H231.52ZM238.457 318.328C239.041 318.328 239.561 318.464 240.017 318.736C240.473 319.008 240.829 319.4 241.085 319.912C241.349 320.424 241.481 321.024 241.481 321.712C241.481 322.4 241.349 323 241.085 323.512C240.829 324.016 240.473 324.404 240.017 324.676C239.561 324.948 239.041 325.084 238.457 325.084C237.817 325.084 237.273 324.924 236.825 324.604C236.385 324.276 236.081 323.848 235.913 323.32V328.12H234.821V318.412H235.913V320.092C236.081 319.564 236.385 319.14 236.825 318.82C237.273 318.492 237.817 318.328 238.457 318.328ZM238.145 319.3C237.721 319.3 237.337 319.4 236.993 319.6C236.649 319.792 236.381 320.072 236.189 320.44C235.997 320.808 235.901 321.232 235.901 321.712C235.901 322.192 235.997 322.616 236.189 322.984C236.381 323.344 236.649 323.624 236.993 323.824C237.337 324.024 237.721 324.124 238.145 324.124C238.825 324.124 239.365 323.912 239.765 323.488C240.173 323.056 240.377 322.464 240.377 321.712C240.377 320.96 240.173 320.372 239.765 319.948C239.365 319.516 238.825 319.3 238.145 319.3ZM243.999 319.744C244.215 319.288 244.531 318.936 244.947 318.688C245.363 318.432 245.859 318.304 246.435 318.304V319.492H246.099C245.483 319.492 244.979 319.652 244.587 319.972C244.195 320.284 243.999 320.804 243.999 321.532V325H242.907V318.412H243.999V319.744Z" fill="#A9A9A9"/>
<path d="M289.348 316.684V325H288.256V318.364L285.604 325H284.632L281.968 318.388V325H280.876V316.684H282.184L285.136 323.668L288.04 316.684H289.348ZM293.795 318.328C294.435 318.328 294.975 318.488 295.415 318.808C295.863 319.128 296.175 319.556 296.351 320.092V318.412H297.443V325H296.351V323.32C296.175 323.856 295.863 324.284 295.415 324.604C294.975 324.924 294.435 325.084 293.795 325.084C293.211 325.084 292.691 324.948 292.235 324.676C291.779 324.404 291.419 324.016 291.155 323.512C290.899 323 290.771 322.4 290.771 321.712C290.771 321.024 290.899 320.424 291.155 319.912C291.419 319.4 291.779 319.008 292.235 318.736C292.691 318.464 293.211 318.328 293.795 318.328ZM294.107 319.3C293.435 319.3 292.895 319.516 292.487 319.948C292.087 320.372 291.887 320.96 291.887 321.712C291.887 322.464 292.087 323.056 292.487 323.488C292.895 323.912 293.435 324.124 294.107 324.124C294.539 324.124 294.923 324.024 295.259 323.824C295.603 323.624 295.871 323.344 296.063 322.984C296.255 322.616 296.351 322.192 296.351 321.712C296.351 321.232 296.255 320.808 296.063 320.44C295.871 320.072 295.603 319.792 295.259 319.6C294.923 319.4 294.539 319.3 294.107 319.3ZM299.637 318.412L301.773 323.596L303.753 318.412H304.965L301.053 328.12H299.817L301.185 324.892L298.413 318.412H299.637Z" fill="#A9A9A9"/>
<path d="M343.992 316.54V322.828C343.992 323.524 343.792 324.076 343.392 324.484C343 324.884 342.448 325.084 341.736 325.084C340.968 325.084 340.364 324.86 339.924 324.412C339.492 323.956 339.276 323.32 339.276 322.504H340.368C340.368 322.992 340.476 323.38 340.692 323.668C340.908 323.948 341.24 324.088 341.688 324.088C342.112 324.088 342.42 323.968 342.612 323.728C342.804 323.488 342.9 323.188 342.9 322.828V316.54H343.992ZM351.545 318.412V325H350.453V323.452C350.285 323.988 349.985 324.4 349.553 324.688C349.129 324.968 348.633 325.108 348.065 325.108C347.305 325.108 346.689 324.864 346.217 324.376C345.745 323.88 345.509 323.172 345.509 322.252V318.412H346.601V322.144C346.601 322.8 346.769 323.308 347.105 323.668C347.441 324.02 347.897 324.196 348.473 324.196C349.073 324.196 349.553 324.004 349.913 323.62C350.273 323.228 350.453 322.66 350.453 321.916V318.412H351.545ZM356.762 318.304C357.53 318.304 358.15 318.552 358.622 319.048C359.094 319.536 359.33 320.244 359.33 321.172V325H358.238V321.268C358.238 320.612 358.07 320.108 357.734 319.756C357.398 319.404 356.942 319.228 356.366 319.228C355.766 319.228 355.286 319.424 354.926 319.816C354.566 320.2 354.386 320.764 354.386 321.508V325H353.294V318.412H354.386V319.972C354.554 319.436 354.85 319.024 355.274 318.736C355.706 318.448 356.202 318.304 356.762 318.304Z" fill="#A9A9A9"/>
<path d="M398.992 316.54V322.828C398.992 323.524 398.792 324.076 398.392 324.484C398 324.884 397.448 325.084 396.736 325.084C395.968 325.084 395.364 324.86 394.924 324.412C394.492 323.956 394.276 323.32 394.276 322.504H395.368C395.368 322.992 395.476 323.38 395.692 323.668C395.908 323.948 396.24 324.088 396.688 324.088C397.112 324.088 397.42 323.968 397.612 323.728C397.804 323.488 397.9 323.188 397.9 322.828V316.54H398.992ZM406.545 318.412V325H405.453V323.452C405.285 323.988 404.985 324.4 404.553 324.688C404.129 324.968 403.633 325.108 403.065 325.108C402.305 325.108 401.689 324.864 401.217 324.376C400.745 323.88 400.509 323.172 400.509 322.252V318.412H401.601V322.144C401.601 322.8 401.769 323.308 402.105 323.668C402.441 324.02 402.897 324.196 403.473 324.196C404.073 324.196 404.553 324.004 404.913 323.62C405.273 323.228 405.453 322.66 405.453 321.916V318.412H406.545ZM409.386 316.12V325H408.294V316.12H409.386Z" fill="#A9A9A9"/>
<path d="M449.832 323.044H446.112L445.404 325H444.228L447.36 316.696H448.596L451.716 325H450.54L449.832 323.044ZM449.52 322.192L447.972 317.92L446.424 322.192H449.52ZM458.677 318.412V325H457.585V323.452C457.417 323.988 457.117 324.4 456.685 324.688C456.261 324.968 455.765 325.108 455.197 325.108C454.437 325.108 453.821 324.864 453.349 324.376C452.877 323.88 452.641 323.172 452.641 322.252V318.412H453.733V322.144C453.733 322.8 453.901 323.308 454.237 323.668C454.573 324.02 455.029 324.196 455.605 324.196C456.205 324.196 456.685 324.004 457.045 323.62C457.405 323.228 457.585 322.66 457.585 321.916V318.412H458.677ZM463.127 318.328C463.767 318.328 464.307 318.488 464.747 318.808C465.195 319.128 465.507 319.556 465.683 320.092V318.412H466.775V325.108C466.775 325.716 466.647 326.256 466.391 326.728C466.135 327.2 465.775 327.568 465.311 327.832C464.847 328.096 464.307 328.228 463.691 328.228C462.803 328.228 462.079 328.012 461.519 327.58C460.959 327.156 460.603 326.58 460.451 325.852H461.531C461.659 326.292 461.899 326.636 462.251 326.884C462.611 327.14 463.071 327.268 463.631 327.268C464.223 327.268 464.711 327.076 465.095 326.692C465.487 326.316 465.683 325.788 465.683 325.108V323.32C465.507 323.856 465.195 324.284 464.747 324.604C464.307 324.924 463.767 325.084 463.127 325.084C462.543 325.084 462.023 324.948 461.567 324.676C461.111 324.404 460.751 324.016 460.487 323.512C460.231 323 460.103 322.4 460.103 321.712C460.103 321.024 460.231 320.424 460.487 319.912C460.751 319.4 461.111 319.008 461.567 318.736C462.023 318.464 462.543 318.328 463.127 318.328ZM463.439 319.3C462.767 319.3 462.227 319.516 461.819 319.948C461.419 320.372 461.219 320.96 461.219 321.712C461.219 322.464 461.419 323.056 461.819 323.488C462.227 323.912 462.767 324.124 463.439 324.124C463.871 324.124 464.255 324.024 464.591 323.824C464.935 323.624 465.203 323.344 465.395 322.984C465.587 322.616 465.683 322.192 465.683 321.712C465.683 321.232 465.587 320.808 465.395 320.44C465.203 320.072 464.935 319.792 464.591 319.6C464.255 319.4 463.871 319.3 463.439 319.3Z" fill="#A9A9A9"/>
<path d="M507.228 322.804C507.228 323.204 507.132 323.576 506.94 323.92C506.748 324.264 506.456 324.544 506.064 324.76C505.672 324.976 505.188 325.084 504.612 325.084C504.052 325.084 503.552 324.984 503.112 324.784C502.68 324.576 502.332 324.296 502.068 323.944C501.812 323.584 501.664 323.176 501.624 322.72H502.788C502.812 322.96 502.892 323.196 503.028 323.428C503.172 323.652 503.372 323.84 503.628 323.992C503.892 324.136 504.208 324.208 504.576 324.208C505.056 324.208 505.424 324.08 505.68 323.824C505.936 323.568 506.064 323.24 506.064 322.84C506.064 322.496 505.972 322.216 505.788 322C505.612 321.784 505.392 321.616 505.128 321.496C504.864 321.368 504.504 321.232 504.048 321.088C503.512 320.912 503.08 320.748 502.752 320.596C502.432 320.436 502.156 320.2 501.924 319.888C501.7 319.576 501.588 319.164 501.588 318.652C501.588 318.212 501.692 317.824 501.9 317.488C502.116 317.152 502.42 316.892 502.812 316.708C503.212 316.524 503.68 316.432 504.216 316.432C505.048 316.432 505.708 316.636 506.196 317.044C506.684 317.444 506.968 317.956 507.048 318.58H505.872C505.808 318.244 505.636 317.948 505.356 317.692C505.076 317.436 504.696 317.308 504.216 317.308C503.776 317.308 503.424 317.424 503.16 317.656C502.896 317.88 502.764 318.2 502.764 318.616C502.764 318.944 502.848 319.212 503.016 319.42C503.192 319.62 503.408 319.78 503.664 319.9C503.92 320.012 504.272 320.14 504.72 320.284C505.264 320.46 505.7 320.628 506.028 320.788C506.364 320.948 506.648 321.192 506.88 321.52C507.112 321.84 507.228 322.268 507.228 322.804ZM514.756 321.34C514.756 321.572 514.74 321.772 514.708 321.94H509.44C509.464 322.692 509.676 323.256 510.076 323.632C510.484 324.008 510.98 324.196 511.564 324.196C512.092 324.196 512.532 324.064 512.884 323.8C513.244 323.528 513.464 323.168 513.544 322.72H514.708C514.628 323.176 514.448 323.584 514.168 323.944C513.896 324.304 513.54 324.584 513.1 324.784C512.66 324.984 512.164 325.084 511.612 325.084C510.98 325.084 510.42 324.948 509.932 324.676C509.444 324.404 509.06 324.016 508.78 323.512C508.508 323 508.372 322.4 508.372 321.712C508.372 321.024 508.508 320.424 508.78 319.912C509.06 319.4 509.444 319.008 509.932 318.736C510.42 318.464 510.98 318.328 511.612 318.328C512.252 318.328 512.808 318.464 513.28 318.736C513.76 319.008 514.124 319.372 514.372 319.828C514.628 320.284 514.756 320.788 514.756 321.34ZM513.652 321.412C513.676 320.924 513.596 320.516 513.412 320.188C513.228 319.86 512.976 319.616 512.656 319.456C512.336 319.296 511.988 319.216 511.612 319.216C511.012 319.216 510.508 319.404 510.1 319.78C509.692 320.148 509.472 320.692 509.44 321.412H513.652ZM519.821 318.328C520.405 318.328 520.925 318.464 521.381 318.736C521.837 319.008 522.193 319.4 522.449 319.912C522.713 320.424 522.845 321.024 522.845 321.712C522.845 322.4 522.713 323 522.449 323.512C522.193 324.016 521.837 324.404 521.381 324.676C520.925 324.948 520.405 325.084 519.821 325.084C519.181 325.084 518.637 324.924 518.189 324.604C517.749 324.276 517.445 323.848 517.277 323.32V328.12H516.185V318.412H517.277V320.092C517.445 319.564 517.749 319.14 518.189 318.82C518.637 318.492 519.181 318.328 519.821 318.328ZM519.509 319.3C519.085 319.3 518.701 319.4 518.357 319.6C518.013 319.792 517.745 320.072 517.553 320.44C517.361 320.808 517.265 321.232 517.265 321.712C517.265 322.192 517.361 322.616 517.553 322.984C517.745 323.344 518.013 323.624 518.357 323.824C518.701 324.024 519.085 324.124 519.509 324.124C520.189 324.124 520.729 323.912 521.129 323.488C521.537 323.056 521.741 322.464 521.741 321.712C521.741 320.96 521.537 320.372 521.129 319.948C520.729 319.516 520.189 319.3 519.509 319.3Z" fill="#A9A9A9"/>
<path d="M561.752 316.432C562.536 316.432 563.24 316.616 563.864 316.984C564.496 317.352 564.992 317.868 565.352 318.532C565.712 319.188 565.892 319.932 565.892 320.764C565.892 321.596 565.712 322.344 565.352 323.008C564.992 323.664 564.496 324.176 563.864 324.544C563.24 324.912 562.536 325.096 561.752 325.096C560.968 325.096 560.256 324.912 559.616 324.544C558.984 324.176 558.488 323.664 558.128 323.008C557.768 322.344 557.588 321.596 557.588 320.764C557.588 319.932 557.768 319.188 558.128 318.532C558.488 317.868 558.984 317.352 559.616 316.984C560.256 316.616 560.968 316.432 561.752 316.432ZM561.752 317.452C561.168 317.452 560.644 317.588 560.18 317.86C559.724 318.124 559.364 318.508 559.1 319.012C558.844 319.508 558.716 320.092 558.716 320.764C558.716 321.428 558.844 322.012 559.1 322.516C559.364 323.02 559.724 323.408 560.18 323.68C560.644 323.944 561.168 324.076 561.752 324.076C562.328 324.076 562.844 323.94 563.3 323.668C563.764 323.396 564.124 323.012 564.38 322.516C564.644 322.012 564.776 321.428 564.776 320.764C564.776 320.092 564.644 319.508 564.38 319.012C564.124 318.508 563.764 318.124 563.3 317.86C562.844 317.588 562.328 317.452 561.752 317.452ZM570.284 318.328C571.124 318.328 571.82 318.552 572.372 319C572.924 319.448 573.264 320.048 573.392 320.8H572.24C572.16 320.328 571.94 319.96 571.58 319.696C571.228 319.424 570.788 319.288 570.26 319.288C569.876 319.288 569.524 319.376 569.204 319.552C568.892 319.728 568.64 320 568.448 320.368C568.256 320.728 568.16 321.176 568.16 321.712C568.16 322.248 568.256 322.7 568.448 323.068C568.64 323.428 568.892 323.696 569.204 323.872C569.524 324.048 569.876 324.136 570.26 324.136C570.788 324.136 571.228 324 571.58 323.728C571.94 323.456 572.16 323.084 572.24 322.612H573.392C573.264 323.372 572.924 323.976 572.372 324.424C571.82 324.864 571.124 325.084 570.284 325.084C569.652 325.084 569.092 324.948 568.604 324.676C568.116 324.404 567.732 324.016 567.452 323.512C567.18 323 567.044 322.4 567.044 321.712C567.044 321.024 567.18 320.424 567.452 319.912C567.732 319.4 568.116 319.008 568.604 318.736C569.092 318.464 569.652 318.328 570.284 318.328ZM577.965 324.04V325H577.149C576.477 325 575.973 324.84 575.637 324.52C575.309 324.2 575.145 323.664 575.145 322.912V319.36H574.161V318.412H575.145V316.768H576.249V318.412H577.953V319.36H576.249V322.936C576.249 323.36 576.325 323.652 576.477 323.812C576.637 323.964 576.909 324.04 577.293 324.04H577.965Z" fill="#A9A9A9"/>
<path d="M619.452 325H618.36L613.968 318.316V325H612.876V316.54H613.968L618.36 323.236V316.54H619.452V325ZM624.196 318.328C624.828 318.328 625.392 318.464 625.888 318.736C626.392 319.008 626.784 319.4 627.064 319.912C627.352 320.424 627.496 321.024 627.496 321.712C627.496 322.4 627.352 323 627.064 323.512C626.784 324.016 626.392 324.404 625.888 324.676C625.392 324.948 624.828 325.084 624.196 325.084C623.564 325.084 622.996 324.948 622.492 324.676C621.996 324.404 621.604 324.016 621.316 323.512C621.028 323 620.884 322.4 620.884 321.712C620.884 321.024 621.028 320.424 621.316 319.912C621.604 319.4 621.996 319.008 622.492 318.736C622.996 318.464 623.564 318.328 624.196 318.328ZM624.196 319.288C623.804 319.288 623.44 319.376 623.104 319.552C622.776 319.728 622.508 320 622.3 320.368C622.1 320.728 622 321.176 622 321.712C622 322.24 622.1 322.688 622.3 323.056C622.508 323.416 622.776 323.684 623.104 323.86C623.44 324.036 623.804 324.124 624.196 324.124C624.588 324.124 624.948 324.036 625.276 323.86C625.612 323.684 625.88 323.416 626.08 323.056C626.288 322.688 626.392 322.24 626.392 321.712C626.392 321.176 626.288 320.728 626.08 320.368C625.88 320 625.612 319.728 625.276 319.552C624.948 319.376 624.588 319.288 624.196 319.288ZM631.475 323.836L633.515 318.412H634.691L632.111 325H630.815L628.235 318.412H629.411L631.475 323.836Z" fill="#A9A9A9"/>
<path d="M676.004 320.764C676.004 321.62 675.832 322.368 675.488 323.008C675.144 323.64 674.636 324.132 673.964 324.484C673.3 324.828 672.5 325 671.564 325H668.876V316.54H671.564C672.5 316.54 673.3 316.712 673.964 317.056C674.636 317.392 675.144 317.88 675.488 318.52C675.832 319.152 676.004 319.9 676.004 320.764ZM671.48 324.016C672.584 324.016 673.428 323.732 674.012 323.164C674.596 322.596 674.888 321.796 674.888 320.764C674.888 319.732 674.596 318.932 674.012 318.364C673.436 317.788 672.592 317.5 671.48 317.5H669.968V324.016H671.48ZM683.538 321.34C683.538 321.572 683.522 321.772 683.49 321.94H678.222C678.246 322.692 678.458 323.256 678.858 323.632C679.266 324.008 679.762 324.196 680.346 324.196C680.874 324.196 681.314 324.064 681.666 323.8C682.026 323.528 682.246 323.168 682.326 322.72H683.49C683.41 323.176 683.23 323.584 682.95 323.944C682.678 324.304 682.322 324.584 681.882 324.784C681.442 324.984 680.946 325.084 680.394 325.084C679.762 325.084 679.202 324.948 678.714 324.676C678.226 324.404 677.842 324.016 677.562 323.512C677.29 323 677.154 322.4 677.154 321.712C677.154 321.024 677.29 320.424 677.562 319.912C677.842 319.4 678.226 319.008 678.714 318.736C679.202 318.464 679.762 318.328 680.394 318.328C681.034 318.328 681.59 318.464 682.062 318.736C682.542 319.008 682.906 319.372 683.154 319.828C683.41 320.284 683.538 320.788 683.538 321.34ZM682.434 321.412C682.458 320.924 682.378 320.516 682.194 320.188C682.01 319.86 681.758 319.616 681.438 319.456C681.118 319.296 680.77 319.216 680.394 319.216C679.794 319.216 679.29 319.404 678.882 319.78C678.474 320.148 678.254 320.692 678.222 321.412H682.434ZM687.882 318.328C688.722 318.328 689.418 318.552 689.97 319C690.522 319.448 690.862 320.048 690.99 320.8H689.838C689.758 320.328 689.538 319.96 689.178 319.696C688.826 319.424 688.386 319.288 687.858 319.288C687.474 319.288 687.122 319.376 686.802 319.552C686.49 319.728 686.238 320 686.046 320.368C685.854 320.728 685.758 321.176 685.758 321.712C685.758 322.248 685.854 322.7 686.046 323.068C686.238 323.428 686.49 323.696 686.802 323.872C687.122 324.048 687.474 324.136 687.858 324.136C688.386 324.136 688.826 324 689.178 323.728C689.538 323.456 689.758 323.084 689.838 322.612H690.99C690.862 323.372 690.522 323.976 689.97 324.424C689.418 324.864 688.722 325.084 687.882 325.084C687.25 325.084 686.69 324.948 686.202 324.676C685.714 324.404 685.33 324.016 685.05 323.512C684.778 323 684.642 322.4 684.642 321.712C684.642 321.024 684.778 320.424 685.05 319.912C685.33 319.4 685.714 319.008 686.202 318.736C686.69 318.464 687.25 318.328 687.882 318.328Z" fill="#A9A9A9"/>
<path d="M29.098 31.216C29.098 31.852 28.948 32.452 28.648 33.016C28.348 33.58 27.868 34.042 27.208 34.402C26.548 34.75 25.702 34.924 24.67 34.924H22.402V40H20.35V27.49H24.67C25.63 27.49 26.44 27.658 27.1 27.994C27.772 28.318 28.27 28.762 28.594 29.326C28.93 29.89 29.098 30.52 29.098 31.216ZM24.67 33.25C25.45 33.25 26.032 33.076 26.416 32.728C26.8 32.368 26.992 31.864 26.992 31.216C26.992 29.848 26.218 29.164 24.67 29.164H22.402V33.25H24.67ZM30.3711 34.996C30.3711 34 30.5751 33.118 30.9831 32.35C31.4031 31.582 31.9671 30.988 32.6751 30.568C33.3951 30.136 34.1871 29.92 35.0511 29.92C35.8311 29.92 36.5091 30.076 37.0851 30.388C37.6731 30.688 38.1411 31.066 38.4891 31.522V30.082H40.5591V40H38.4891V38.524C38.1411 38.992 37.6671 39.382 37.0671 39.694C36.4671 40.006 35.7831 40.162 35.0151 40.162C34.1631 40.162 33.3831 39.946 32.6751 39.514C31.9671 39.07 31.4031 38.458 30.9831 37.678C30.5751 36.886 30.3711 35.992 30.3711 34.996ZM38.4891 35.032C38.4891 34.348 38.3451 33.754 38.0571 33.25C37.7811 32.746 37.4151 32.362 36.9591 32.098C36.5031 31.834 36.0111 31.702 35.4831 31.702C34.9551 31.702 34.4631 31.834 34.0071 32.098C33.5511 32.35 33.1791 32.728 32.8911 33.232C32.6151 33.724 32.4771 34.312 32.4771 34.996C32.4771 35.68 32.6151 36.28 32.8911 36.796C33.1791 37.312 33.5511 37.708 34.0071 37.984C34.4751 38.248 34.9671 38.38 35.4831 38.38C36.0111 38.38 36.5031 38.248 36.9591 37.984C37.4151 37.72 37.7811 37.336 38.0571 36.832C38.3451 36.316 38.4891 35.716 38.4891 35.032ZM45.6483 31.756V37.246C45.6483 37.618 45.7323 37.888 45.9003 38.056C46.0803 38.212 46.3803 38.29 46.8003 38.29H48.0603V40H46.4403C45.5163 40 44.8083 39.784 44.3163 39.352C43.8243 38.92 43.5783 38.218 43.5783 37.246V31.756H42.4083V30.082H43.5783V27.616H45.6483V30.082H48.0603V31.756H45.6483ZM50.9956 28.768C50.6236 28.768 50.3116 28.642 50.0596 28.39C49.8076 28.138 49.6816 27.826 49.6816 27.454C49.6816 27.082 49.8076 26.77 50.0596 26.518C50.3116 26.266 50.6236 26.14 50.9956 26.14C51.3556 26.14 51.6616 26.266 51.9136 26.518C52.1656 26.77 52.2916 27.082 52.2916 27.454C52.2916 27.826 52.1656 28.138 51.9136 28.39C51.6616 28.642 51.3556 28.768 50.9956 28.768ZM52.0036 30.082V40H49.9516V30.082H52.0036ZM63.7877 34.798C63.7877 35.17 63.7637 35.506 63.7157 35.806H56.1377C56.1977 36.598 56.4917 37.234 57.0197 37.714C57.5477 38.194 58.1957 38.434 58.9637 38.434C60.0677 38.434 60.8477 37.972 61.3037 37.048H63.5177C63.2177 37.96 62.6717 38.71 61.8797 39.298C61.0997 39.874 60.1277 40.162 58.9637 40.162C58.0157 40.162 57.1637 39.952 56.4077 39.532C55.6637 39.1 55.0757 38.5 54.6437 37.732C54.2237 36.952 54.0137 36.052 54.0137 35.032C54.0137 34.012 54.2177 33.118 54.6257 32.35C55.0457 31.57 55.6277 30.97 56.3717 30.55C57.1277 30.13 57.9917 29.92 58.9637 29.92C59.8997 29.92 60.7337 30.124 61.4657 30.532C62.1977 30.94 62.7677 31.516 63.1757 32.26C63.5837 32.992 63.7877 33.838 63.7877 34.798ZM61.6457 34.15C61.6337 33.394 61.3637 32.788 60.8357 32.332C60.3077 31.876 59.6537 31.648 58.8737 31.648C58.1657 31.648 57.5597 31.876 57.0557 32.332C56.5517 32.776 56.2517 33.382 56.1557 34.15H61.6457ZM70.811 29.92C71.591 29.92 72.287 30.082 72.899 30.406C73.523 30.73 74.009 31.21 74.357 31.846C74.705 32.482 74.879 33.25 74.879 34.15V40H72.845V34.456C72.845 33.568 72.623 32.89 72.179 32.422C71.735 31.942 71.129 31.702 70.361 31.702C69.593 31.702 68.981 31.942 68.525 32.422C68.081 32.89 67.859 33.568 67.859 34.456V40H65.807V30.082H67.859V31.216C68.195 30.808 68.621 30.49 69.137 30.262C69.665 30.034 70.223 29.92 70.811 29.92ZM79.8905 31.756V37.246C79.8905 37.618 79.9745 37.888 80.1425 38.056C80.3225 38.212 80.6225 38.29 81.0425 38.29H82.3025V40H80.6825C79.7585 40 79.0505 39.784 78.5585 39.352C78.0665 38.92 77.8205 38.218 77.8205 37.246V31.756H76.6505V30.082H77.8205V27.616H79.8905V30.082H82.3025V31.756H79.8905ZM94.5755 40.126C93.4115 40.126 92.3375 39.856 91.3535 39.316C90.3815 38.764 89.6075 38.002 89.0315 37.03C88.4675 36.046 88.1855 34.942 88.1855 33.718C88.1855 32.494 88.4675 31.396 89.0315 30.424C89.6075 29.452 90.3815 28.696 91.3535 28.156C92.3375 27.604 93.4115 27.328 94.5755 27.328C95.7515 27.328 96.8255 27.604 97.7975 28.156C98.7815 28.696 99.5555 29.452 100.12 30.424C100.684 31.396 100.966 32.494 100.966 33.718C100.966 34.942 100.684 36.046 100.12 37.03C99.5555 38.002 98.7815 38.764 97.7975 39.316C96.8255 39.856 95.7515 40.126 94.5755 40.126ZM94.5755 38.344C95.4035 38.344 96.1415 38.158 96.7895 37.786C97.4375 37.402 97.9415 36.862 98.3015 36.166C98.6735 35.458 98.8595 34.642 98.8595 33.718C98.8595 32.794 98.6735 31.984 98.3015 31.288C97.9415 30.592 97.4375 30.058 96.7895 29.686C96.1415 29.314 95.4035 29.128 94.5755 29.128C93.7475 29.128 93.0095 29.314 92.3615 29.686C91.7135 30.058 91.2035 30.592 90.8315 31.288C90.4715 31.984 90.2915 32.794 90.2915 33.718C90.2915 34.642 90.4715 35.458 90.8315 36.166C91.2035 36.862 91.7135 37.402 92.3615 37.786C93.0095 38.158 93.7475 38.344 94.5755 38.344ZM106.819 38.164L109.627 30.082H111.805L108.025 40H105.577L101.815 30.082H104.011L106.819 38.164ZM122.446 34.798C122.446 35.17 122.422 35.506 122.374 35.806H114.796C114.856 36.598 115.15 37.234 115.678 37.714C116.206 38.194 116.854 38.434 117.622 38.434C118.726 38.434 119.506 37.972 119.962 37.048H122.176C121.876 37.96 121.33 38.71 120.538 39.298C119.758 39.874 118.786 40.162 117.622 40.162C116.674 40.162 115.822 39.952 115.066 39.532C114.322 39.1 113.734 38.5 113.302 37.732C112.882 36.952 112.672 36.052 112.672 35.032C112.672 34.012 112.876 33.118 113.284 32.35C113.704 31.57 114.286 30.97 115.03 30.55C115.786 30.13 116.65 29.92 117.622 29.92C118.558 29.92 119.392 30.124 120.124 30.532C120.856 30.94 121.426 31.516 121.834 32.26C122.242 32.992 122.446 33.838 122.446 34.798ZM120.304 34.15C120.292 33.394 120.022 32.788 119.494 32.332C118.966 31.876 118.312 31.648 117.532 31.648C116.824 31.648 116.218 31.876 115.714 32.332C115.21 32.776 114.91 33.382 114.814 34.15H120.304ZM126.517 31.522C126.817 31.018 127.213 30.628 127.705 30.352C128.209 30.064 128.803 29.92 129.487 29.92V32.044H128.965C128.161 32.044 127.549 32.248 127.129 32.656C126.721 33.064 126.517 33.772 126.517 34.78V40H124.465V30.082H126.517V31.522ZM135.207 38.164L138.015 30.082H140.193L136.413 40H133.965L130.203 30.082H132.399L135.207 38.164ZM142.789 28.768C142.417 28.768 142.105 28.642 141.853 28.39C141.601 28.138 141.475 27.826 141.475 27.454C141.475 27.082 141.601 26.77 141.853 26.518C142.105 26.266 142.417 26.14 142.789 26.14C143.149 26.14 143.455 26.266 143.707 26.518C143.959 26.77 144.085 27.082 144.085 27.454C144.085 27.826 143.959 28.138 143.707 28.39C143.455 28.642 143.149 28.768 142.789 28.768ZM143.797 30.082V40H141.745V30.082H143.797ZM155.581 34.798C155.581 35.17 155.557 35.506 155.509 35.806H147.931C147.991 36.598 148.285 37.234 148.813 37.714C149.341 38.194 149.989 38.434 150.757 38.434C151.861 38.434 152.641 37.972 153.097 37.048H155.311C155.011 37.96 154.465 38.71 153.673 39.298C152.893 39.874 151.921 40.162 150.757 40.162C149.809 40.162 148.957 39.952 148.201 39.532C147.457 39.1 146.869 38.5 146.437 37.732C146.017 36.952 145.807 36.052 145.807 35.032C145.807 34.012 146.011 33.118 146.419 32.35C146.839 31.57 147.421 30.97 148.165 30.55C148.921 30.13 149.785 29.92 150.757 29.92C151.693 29.92 152.527 30.124 153.259 30.532C153.991 30.94 154.561 31.516 154.969 32.26C155.377 32.992 155.581 33.838 155.581 34.798ZM153.439 34.15C153.427 33.394 153.157 32.788 152.629 32.332C152.101 31.876 151.447 31.648 150.667 31.648C149.959 31.648 149.353 31.876 148.849 32.332C148.345 32.776 148.045 33.382 147.949 34.15H153.439ZM170.92 30.082L167.842 40H165.682L163.684 32.674L161.686 40H159.526L156.43 30.082H158.518L160.588 38.056L162.694 30.082H164.836L166.852 38.02L168.904 30.082H170.92Z" fill="#4A4A4A"/>
<line x1="61" y1="284.5" x2="715" y2="284.5" stroke="#F1F1F1"/>
<line x1="61" y1="230.5" x2="715" y2="230.5" stroke="#F1F1F1"/>
<line x1="61" y1="179.5" x2="715" y2="179.5" stroke="#F1F1F1"/>
<line x1="61" y1="128.5" x2="715" y2="128.5" stroke="#F1F1F1"/>
<line x1="61" y1="77.5" x2="715" y2="77.5001" stroke="#F1F1F1"/>
<rect x="621.5" y="18.5" width="93" height="31" rx="7.5" stroke="#F1F1F1"/>
<path d="M702.956 37.2366C702.77 37.2366 702.584 37.1662 702.437 37.0154L698.979 33.4654C698.695 33.1738 698.695 32.6911 698.979 32.3994C699.263 32.1078 699.733 32.1078 700.017 32.3994L702.956 35.4164L705.895 32.3994C706.18 32.1078 706.65 32.1078 706.934 32.3994C707.218 32.6911 707.218 33.1738 706.934 33.4654L703.476 37.0154C703.329 37.1662 703.143 37.2366 702.956 37.2366Z" fill="#A9A9A9"/>
<path d="M643.408 29.696V38H642.316V31.808L639.556 38H638.788L636.016 31.796V38H634.924V29.696H636.1L639.172 36.56L642.244 29.696H643.408ZM648.128 38.108C647.512 38.108 646.952 37.968 646.448 37.688C645.952 37.408 645.56 37.012 645.272 36.5C644.992 35.98 644.852 35.38 644.852 34.7C644.852 34.028 644.996 33.436 645.284 32.924C645.58 32.404 645.98 32.008 646.484 31.736C646.988 31.456 647.552 31.316 648.176 31.316C648.8 31.316 649.364 31.456 649.868 31.736C650.372 32.008 650.768 32.4 651.056 32.912C651.352 33.424 651.5 34.02 651.5 34.7C651.5 35.38 651.348 35.98 651.044 36.5C650.748 37.012 650.344 37.408 649.832 37.688C649.32 37.968 648.752 38.108 648.128 38.108ZM648.128 37.148C648.52 37.148 648.888 37.056 649.232 36.872C649.576 36.688 649.852 36.412 650.06 36.044C650.276 35.676 650.384 35.228 650.384 34.7C650.384 34.172 650.28 33.724 650.072 33.356C649.864 32.988 649.592 32.716 649.256 32.54C648.92 32.356 648.556 32.264 648.164 32.264C647.764 32.264 647.396 32.356 647.06 32.54C646.732 32.716 646.468 32.988 646.268 33.356C646.068 33.724 645.968 34.172 645.968 34.7C645.968 35.236 646.064 35.688 646.256 36.056C646.456 36.424 646.72 36.7 647.048 36.884C647.376 37.06 647.736 37.148 648.128 37.148ZM656.14 31.304C656.94 31.304 657.588 31.548 658.084 32.036C658.58 32.516 658.828 33.212 658.828 34.124V38H657.748V34.28C657.748 33.624 657.584 33.124 657.256 32.78C656.928 32.428 656.48 32.252 655.912 32.252C655.336 32.252 654.876 32.432 654.532 32.792C654.196 33.152 654.028 33.676 654.028 34.364V38H652.936V31.424H654.028V32.36C654.244 32.024 654.536 31.764 654.904 31.58C655.28 31.396 655.692 31.304 656.14 31.304ZM661.944 32.324V36.2C661.944 36.52 662.012 36.748 662.148 36.884C662.284 37.012 662.52 37.076 662.855 37.076H663.66V38H662.676C662.068 38 661.612 37.86 661.308 37.58C661.004 37.3 660.852 36.84 660.852 36.2V32.324H660V31.424H660.852V29.768H661.944V31.424H663.66V32.324H661.944ZM668.247 31.304C668.743 31.304 669.191 31.412 669.591 31.628C669.991 31.836 670.303 32.152 670.527 32.576C670.759 33 670.875 33.516 670.875 34.124V38H669.795V34.28C669.795 33.624 669.631 33.124 669.303 32.78C668.975 32.428 668.527 32.252 667.959 32.252C667.383 32.252 666.923 32.432 666.579 32.792C666.243 33.152 666.075 33.676 666.075 34.364V38H664.983V29.12H666.075V32.36C666.291 32.024 666.587 31.764 666.963 31.58C667.347 31.396 667.775 31.304 668.247 31.304ZM673.75 29.12V38H672.658V29.12H673.75ZM681.276 31.424L677.316 41.096H676.188L677.484 37.928L674.832 31.424H676.044L678.108 36.752L680.148 31.424H681.276Z" fill="#676767"/>
<path opacity="0.6" d="M61 264C115.525 264 91.4553 205 127.805 205C164.155 205 147.454 246.5 183.804 246.5C220.154 246.5 200.996 228 242.258 228C283.52 228 269.275 214.5 297.274 214.5C325.273 214.5 335.589 184 358.676 184C381.763 184 382.254 214.5 407.306 214.5C432.358 214.5 430.885 147.5 457.901 147.5C484.918 147.5 474.603 178.5 506.532 178.5C538.461 178.5 548.285 107 570.39 107C592.494 107 607.231 159.5 629.827 159.5C652.422 159.5 653.405 107 704 107" stroke="#DF1AFF" stroke-width="3" stroke-linecap="round"/>
<path opacity="0.4" d="M61 202C115.525 202 91.4553 143 127.805 143C164.155 143 147.454 184.5 183.804 184.5C220.154 184.5 200.996 207 242.258 207C283.52 207 269.275 180.5 297.274 180.5C325.273 180.5 335.589 273 358.676 273C381.763 273 382.254 226 407.306 226C432.358 226 430.885 198.5 457.901 198.5C484.918 198.5 474.603 212.5 506.532 212.5C538.461 212.5 548.285 202.5 570.39 202.5C592.494 202.5 607.231 175.5 629.827 175.5C652.422 175.5 653.405 202.5 704 202.5" stroke="#00E7BD" stroke-width="3" stroke-linecap="round"/>
<circle cx="228" cy="34" r="5" fill="#E126FF"/>
<path d="M248.652 29.636V30.524H245.016V33.344H247.968V34.232H245.016V38H243.924V29.636H248.652ZM255.971 34.46C255.971 34.668 255.959 34.888 255.935 35.12H250.679C250.719 35.768 250.939 36.276 251.339 36.644C251.747 37.004 252.239 37.184 252.815 37.184C253.287 37.184 253.679 37.076 253.991 36.86C254.311 36.636 254.535 36.34 254.663 35.972H255.839C255.663 36.604 255.311 37.12 254.783 37.52C254.255 37.912 253.599 38.108 252.815 38.108C252.191 38.108 251.631 37.968 251.135 37.688C250.647 37.408 250.263 37.012 249.983 36.5C249.703 35.98 249.563 35.38 249.563 34.7C249.563 34.02 249.699 33.424 249.971 32.912C250.243 32.4 250.623 32.008 251.111 31.736C251.607 31.456 252.175 31.316 252.815 31.316C253.439 31.316 253.991 31.452 254.471 31.724C254.951 31.996 255.319 32.372 255.575 32.852C255.839 33.324 255.971 33.86 255.971 34.46ZM254.843 34.232C254.843 33.816 254.751 33.46 254.567 33.164C254.383 32.86 254.131 32.632 253.811 32.48C253.499 32.32 253.151 32.24 252.767 32.24C252.215 32.24 251.743 32.416 251.351 32.768C250.967 33.12 250.747 33.608 250.691 34.232H254.843ZM265.32 31.304C265.832 31.304 266.288 31.412 266.688 31.628C267.088 31.836 267.404 32.152 267.636 32.576C267.868 33 267.984 33.516 267.984 34.124V38H266.904V34.28C266.904 33.624 266.74 33.124 266.412 32.78C266.092 32.428 265.656 32.252 265.104 32.252C264.536 32.252 264.084 32.436 263.748 32.804C263.412 33.164 263.244 33.688 263.244 34.376V38H262.164V34.28C262.164 33.624 262 33.124 261.672 32.78C261.352 32.428 260.916 32.252 260.364 32.252C259.796 32.252 259.344 32.436 259.008 32.804C258.672 33.164 258.504 33.688 258.504 34.376V38H257.412V31.424H258.504V32.372C258.72 32.028 259.008 31.764 259.368 31.58C259.736 31.396 260.14 31.304 260.58 31.304C261.132 31.304 261.62 31.428 262.044 31.676C262.468 31.924 262.784 32.288 262.992 32.768C263.176 32.304 263.48 31.944 263.904 31.688C264.328 31.432 264.8 31.304 265.32 31.304ZM269.368 34.688C269.368 34.016 269.504 33.428 269.776 32.924C270.048 32.412 270.42 32.016 270.892 31.736C271.372 31.456 271.904 31.316 272.488 31.316C273.064 31.316 273.564 31.44 273.988 31.688C274.412 31.936 274.728 32.248 274.936 32.624V31.424H276.04V38H274.936V36.776C274.72 37.16 274.396 37.48 273.964 37.736C273.54 37.984 273.044 38.108 272.476 38.108C271.892 38.108 271.364 37.964 270.892 37.676C270.42 37.388 270.048 36.984 269.776 36.464C269.504 35.944 269.368 35.352 269.368 34.688ZM274.936 34.7C274.936 34.204 274.836 33.772 274.636 33.404C274.436 33.036 274.164 32.756 273.82 32.564C273.484 32.364 273.112 32.264 272.704 32.264C272.296 32.264 271.924 32.36 271.588 32.552C271.252 32.744 270.984 33.024 270.784 33.392C270.584 33.76 270.484 34.192 270.484 34.688C270.484 35.192 270.584 35.632 270.784 36.008C270.984 36.376 271.252 36.66 271.588 36.86C271.924 37.052 272.296 37.148 272.704 37.148C273.112 37.148 273.484 37.052 273.82 36.86C274.164 36.66 274.436 36.376 274.636 36.008C274.836 35.632 274.936 35.196 274.936 34.7ZM278.977 29.12V38H277.885V29.12H278.977ZM286.838 34.46C286.838 34.668 286.826 34.888 286.802 35.12H281.546C281.586 35.768 281.806 36.276 282.206 36.644C282.614 37.004 283.106 37.184 283.682 37.184C284.154 37.184 284.546 37.076 284.858 36.86C285.178 36.636 285.402 36.34 285.53 35.972H286.706C286.53 36.604 286.178 37.12 285.65 37.52C285.122 37.912 284.466 38.108 283.682 38.108C283.058 38.108 282.498 37.968 282.002 37.688C281.514 37.408 281.13 37.012 280.85 36.5C280.57 35.98 280.43 35.38 280.43 34.7C280.43 34.02 280.566 33.424 280.838 32.912C281.11 32.4 281.49 32.008 281.978 31.736C282.474 31.456 283.042 31.316 283.682 31.316C284.306 31.316 284.858 31.452 285.338 31.724C285.818 31.996 286.186 32.372 286.442 32.852C286.706 33.324 286.838 33.86 286.838 34.46ZM285.71 34.232C285.71 33.816 285.618 33.46 285.434 33.164C285.25 32.86 284.998 32.632 284.678 32.48C284.366 32.32 284.018 32.24 283.634 32.24C283.082 32.24 282.61 32.416 282.218 32.768C281.834 33.12 281.614 33.608 281.558 34.232H285.71Z" fill="#676767"/>
<path d="M349.408 29.696V38H348.316V31.808L345.556 38H344.788L342.016 31.796V38H340.924V29.696H342.1L345.172 36.56L348.244 29.696H349.408ZM350.852 34.688C350.852 34.016 350.988 33.428 351.26 32.924C351.532 32.412 351.904 32.016 352.376 31.736C352.856 31.456 353.388 31.316 353.972 31.316C354.548 31.316 355.048 31.44 355.472 31.688C355.896 31.936 356.212 32.248 356.42 32.624V31.424H357.524V38H356.42V36.776C356.204 37.16 355.88 37.48 355.448 37.736C355.024 37.984 354.528 38.108 353.96 38.108C353.376 38.108 352.848 37.964 352.376 37.676C351.904 37.388 351.532 36.984 351.26 36.464C350.988 35.944 350.852 35.352 350.852 34.688ZM356.42 34.7C356.42 34.204 356.32 33.772 356.12 33.404C355.92 33.036 355.648 32.756 355.304 32.564C354.968 32.364 354.596 32.264 354.188 32.264C353.78 32.264 353.408 32.36 353.072 32.552C352.736 32.744 352.468 33.024 352.268 33.392C352.068 33.76 351.968 34.192 351.968 34.688C351.968 35.192 352.068 35.632 352.268 36.008C352.468 36.376 352.736 36.66 353.072 36.86C353.408 37.052 353.78 37.148 354.188 37.148C354.596 37.148 354.968 37.052 355.304 36.86C355.648 36.66 355.92 36.376 356.12 36.008C356.32 35.632 356.42 35.196 356.42 34.7ZM360.461 29.12V38H359.369V29.12H360.461ZM368.322 34.46C368.322 34.668 368.31 34.888 368.286 35.12H363.03C363.07 35.768 363.29 36.276 363.69 36.644C364.098 37.004 364.59 37.184 365.166 37.184C365.638 37.184 366.03 37.076 366.342 36.86C366.662 36.636 366.886 36.34 367.014 35.972H368.19C368.014 36.604 367.662 37.12 367.134 37.52C366.606 37.912 365.95 38.108 365.166 38.108C364.542 38.108 363.982 37.968 363.486 37.688C362.998 37.408 362.614 37.012 362.334 36.5C362.054 35.98 361.914 35.38 361.914 34.7C361.914 34.02 362.05 33.424 362.322 32.912C362.594 32.4 362.974 32.008 363.462 31.736C363.958 31.456 364.526 31.316 365.166 31.316C365.79 31.316 366.342 31.452 366.822 31.724C367.302 31.996 367.67 32.372 367.926 32.852C368.19 33.324 368.322 33.86 368.322 34.46ZM367.194 34.232C367.194 33.816 367.102 33.46 366.918 33.164C366.734 32.86 366.482 32.632 366.162 32.48C365.85 32.32 365.502 32.24 365.118 32.24C364.566 32.24 364.094 32.416 363.702 32.768C363.318 33.12 363.098 33.608 363.042 34.232H367.194Z" fill="#676767"/>
<circle cx="325" cy="34" r="5" fill="#00E7BD"/>
<circle cx="458" cy="148" r="6.5" fill="#DF1AFF" stroke="white" stroke-width="3"/>
<g filter="url(#filter0_d_184_495)">
<rect x="400" y="78" width="112" height="59" rx="11" fill="#FBFBFB"/>
</g>
<path d="M418.476 122.14C419.244 121.476 419.848 120.932 420.288 120.508C420.736 120.076 421.108 119.628 421.404 119.164C421.7 118.7 421.848 118.236 421.848 117.772C421.848 117.292 421.732 116.916 421.5 116.644C421.276 116.372 420.92 116.236 420.432 116.236C419.96 116.236 419.592 116.388 419.328 116.692C419.072 116.988 418.936 117.388 418.92 117.892H417.6C417.624 116.98 417.896 116.284 418.416 115.804C418.944 115.316 419.612 115.072 420.42 115.072C421.292 115.072 421.972 115.312 422.46 115.792C422.956 116.272 423.204 116.912 423.204 117.712C423.204 118.288 423.056 118.844 422.76 119.38C422.472 119.908 422.124 120.384 421.716 120.808C421.316 121.224 420.804 121.708 420.18 122.26L419.64 122.74H423.444V123.88H417.612V122.884L418.476 122.14ZM426.326 122.356L424.874 125.668H423.986L424.838 122.356H426.326ZM432.885 116.308L429.549 124H428.169L431.541 116.452H427.101V115.288H432.885V116.308ZM435.532 119.428C434.7 119.012 434.284 118.356 434.284 117.46C434.284 117.028 434.392 116.632 434.608 116.272C434.824 115.912 435.148 115.628 435.58 115.42C436.012 115.204 436.54 115.096 437.164 115.096C437.78 115.096 438.304 115.204 438.736 115.42C439.176 115.628 439.504 115.912 439.72 116.272C439.936 116.632 440.044 117.028 440.044 117.46C440.044 117.908 439.928 118.304 439.696 118.648C439.472 118.984 439.172 119.244 438.796 119.428C439.252 119.596 439.612 119.872 439.876 120.256C440.14 120.632 440.272 121.076 440.272 121.588C440.272 122.108 440.14 122.568 439.876 122.968C439.612 123.368 439.244 123.676 438.772 123.892C438.3 124.108 437.764 124.216 437.164 124.216C436.564 124.216 436.028 124.108 435.556 123.892C435.092 123.676 434.728 123.368 434.464 122.968C434.2 122.568 434.068 122.108 434.068 121.588C434.068 121.068 434.2 120.62 434.464 120.244C434.728 119.868 435.084 119.596 435.532 119.428ZM438.736 117.628C438.736 117.18 438.596 116.836 438.316 116.596C438.036 116.356 437.652 116.236 437.164 116.236C436.684 116.236 436.304 116.356 436.024 116.596C435.744 116.836 435.604 117.184 435.604 117.64C435.604 118.04 435.748 118.368 436.036 118.624C436.332 118.872 436.708 118.996 437.164 118.996C437.62 118.996 437.996 118.868 438.292 118.612C438.588 118.356 438.736 118.028 438.736 117.628ZM437.164 120.028C436.636 120.028 436.204 120.16 435.868 120.424C435.54 120.68 435.376 121.052 435.376 121.54C435.376 121.996 435.536 122.368 435.856 122.656C436.176 122.936 436.612 123.076 437.164 123.076C437.708 123.076 438.136 122.932 438.448 122.644C438.768 122.356 438.928 121.988 438.928 121.54C438.928 121.06 438.764 120.688 438.436 120.424C438.116 120.16 437.692 120.028 437.164 120.028ZM441.528 116.5V115.252H444.024V124H442.644V116.5H441.528ZM455.033 118.144C455.033 118.568 454.933 118.968 454.733 119.344C454.533 119.72 454.213 120.028 453.773 120.268C453.333 120.5 452.769 120.616 452.081 120.616H450.569V124H449.201V115.66H452.081C452.721 115.66 453.261 115.772 453.701 115.996C454.149 116.212 454.481 116.508 454.697 116.884C454.921 117.26 455.033 117.68 455.033 118.144ZM452.081 119.5C452.601 119.5 452.989 119.384 453.245 119.152C453.501 118.912 453.629 118.576 453.629 118.144C453.629 117.232 453.113 116.776 452.081 116.776H450.569V119.5H452.081ZM455.882 120.664C455.882 120 456.018 119.412 456.29 118.9C456.57 118.388 456.946 117.992 457.418 117.712C457.898 117.424 458.426 117.28 459.002 117.28C459.522 117.28 459.974 117.384 460.358 117.592C460.75 117.792 461.062 118.044 461.294 118.348V117.388H462.674V124H461.294V123.016C461.062 123.328 460.746 123.588 460.346 123.796C459.946 124.004 459.49 124.108 458.978 124.108C458.41 124.108 457.89 123.964 457.418 123.676C456.946 123.38 456.57 122.972 456.29 122.452C456.018 121.924 455.882 121.328 455.882 120.664ZM461.294 120.688C461.294 120.232 461.198 119.836 461.006 119.5C460.822 119.164 460.578 118.908 460.274 118.732C459.97 118.556 459.642 118.468 459.29 118.468C458.938 118.468 458.61 118.556 458.306 118.732C458.002 118.9 457.754 119.152 457.562 119.488C457.378 119.816 457.286 120.208 457.286 120.664C457.286 121.12 457.378 121.52 457.562 121.864C457.754 122.208 458.002 122.472 458.306 122.656C458.618 122.832 458.946 122.92 459.29 122.92C459.642 122.92 459.97 122.832 460.274 122.656C460.578 122.48 460.822 122.224 461.006 121.888C461.198 121.544 461.294 121.144 461.294 120.688ZM466.066 118.504V122.164C466.066 122.412 466.122 122.592 466.234 122.704C466.354 122.808 466.554 122.86 466.834 122.86H467.674V124H466.594C465.978 124 465.506 123.856 465.178 123.568C464.85 123.28 464.686 122.812 464.686 122.164V118.504H463.906V117.388H464.686V115.744H466.066V117.388H467.674V118.504H466.066ZM469.631 116.512C469.383 116.512 469.175 116.428 469.007 116.26C468.839 116.092 468.755 115.884 468.755 115.636C468.755 115.388 468.839 115.18 469.007 115.012C469.175 114.844 469.383 114.76 469.631 114.76C469.871 114.76 470.075 114.844 470.243 115.012C470.411 115.18 470.495 115.388 470.495 115.636C470.495 115.884 470.411 116.092 470.243 116.26C470.075 116.428 469.871 116.512 469.631 116.512ZM470.303 117.388V124H468.935V117.388H470.303ZM478.159 120.532C478.159 120.78 478.143 121.004 478.111 121.204H473.059C473.099 121.732 473.295 122.156 473.647 122.476C473.999 122.796 474.431 122.956 474.943 122.956C475.679 122.956 476.199 122.648 476.503 122.032H477.979C477.779 122.64 477.415 123.14 476.887 123.532C476.367 123.916 475.719 124.108 474.943 124.108C474.311 124.108 473.743 123.968 473.239 123.688C472.743 123.4 472.351 123 472.063 122.488C471.783 121.968 471.643 121.368 471.643 120.688C471.643 120.008 471.779 119.412 472.051 118.9C472.331 118.38 472.719 117.98 473.215 117.7C473.719 117.42 474.295 117.28 474.943 117.28C475.567 117.28 476.123 117.416 476.611 117.688C477.099 117.96 477.479 118.344 477.751 118.84C478.023 119.328 478.159 119.892 478.159 120.532ZM476.731 120.1C476.723 119.596 476.543 119.192 476.191 118.888C475.839 118.584 475.403 118.432 474.883 118.432C474.411 118.432 474.007 118.584 473.671 118.888C473.335 119.184 473.135 119.588 473.071 120.1H476.731ZM482.841 117.28C483.361 117.28 483.825 117.388 484.233 117.604C484.649 117.82 484.973 118.14 485.205 118.564C485.437 118.988 485.553 119.5 485.553 120.1V124H484.197V120.304C484.197 119.712 484.049 119.26 483.753 118.948C483.457 118.628 483.053 118.468 482.541 118.468C482.029 118.468 481.621 118.628 481.317 118.948C481.021 119.26 480.873 119.712 480.873 120.304V124H479.505V117.388H480.873V118.144C481.097 117.872 481.381 117.66 481.725 117.508C482.077 117.356 482.449 117.28 482.841 117.28ZM488.894 118.504V122.164C488.894 122.412 488.95 122.592 489.062 122.704C489.182 122.808 489.382 122.86 489.662 122.86H490.502V124H489.422C488.806 124 488.334 123.856 488.006 123.568C487.678 123.28 487.514 122.812 487.514 122.164V118.504H486.734V117.388H487.514V115.744H488.894V117.388H490.502V118.504H488.894ZM494.163 124.108C493.643 124.108 493.175 124.016 492.759 123.832C492.351 123.64 492.027 123.384 491.787 123.064C491.547 122.736 491.419 122.372 491.403 121.972H492.819C492.843 122.252 492.975 122.488 493.215 122.68C493.463 122.864 493.771 122.956 494.139 122.956C494.523 122.956 494.819 122.884 495.027 122.74C495.243 122.588 495.351 122.396 495.351 122.164C495.351 121.916 495.231 121.732 494.991 121.612C494.759 121.492 494.387 121.36 493.875 121.216C493.379 121.08 492.975 120.948 492.663 120.82C492.351 120.692 492.079 120.496 491.847 120.232C491.623 119.968 491.511 119.62 491.511 119.188C491.511 118.836 491.615 118.516 491.823 118.228C492.031 117.932 492.327 117.7 492.711 117.532C493.103 117.364 493.551 117.28 494.055 117.28C494.807 117.28 495.411 117.472 495.867 117.856C496.331 118.232 496.579 118.748 496.611 119.404H495.243C495.219 119.108 495.099 118.872 494.883 118.696C494.667 118.52 494.375 118.432 494.007 118.432C493.647 118.432 493.371 118.5 493.179 118.636C492.987 118.772 492.891 118.952 492.891 119.176C492.891 119.352 492.955 119.5 493.083 119.62C493.211 119.74 493.367 119.836 493.551 119.908C493.735 119.972 494.007 120.056 494.367 120.16C494.847 120.288 495.239 120.42 495.543 120.556C495.855 120.684 496.123 120.876 496.347 121.132C496.571 121.388 496.687 121.728 496.695 122.152C496.695 122.528 496.591 122.864 496.383 123.16C496.175 123.456 495.879 123.688 495.495 123.856C495.119 124.024 494.675 124.108 494.163 124.108Z" fill="#1C1C1C"/>
<path d="M441.652 92.636V93.524H438.016V96.344H440.968V97.232H438.016V101H436.924V92.636H441.652ZM448.971 97.46C448.971 97.668 448.959 97.888 448.935 98.12H443.679C443.719 98.768 443.939 99.276 444.339 99.644C444.747 100.004 445.239 100.184 445.815 100.184C446.287 100.184 446.679 100.076 446.991 99.86C447.311 99.636 447.535 99.34 447.663 98.972H448.839C448.663 99.604 448.311 100.12 447.783 100.52C447.255 100.912 446.599 101.108 445.815 101.108C445.191 101.108 444.631 100.968 444.135 100.688C443.647 100.408 443.263 100.012 442.983 99.5C442.703 98.98 442.563 98.38 442.563 97.7C442.563 97.02 442.699 96.424 442.971 95.912C443.243 95.4 443.623 95.008 444.111 94.736C444.607 94.456 445.175 94.316 445.815 94.316C446.439 94.316 446.991 94.452 447.471 94.724C447.951 94.996 448.319 95.372 448.575 95.852C448.839 96.324 448.971 96.86 448.971 97.46ZM447.843 97.232C447.843 96.816 447.751 96.46 447.567 96.164C447.383 95.86 447.131 95.632 446.811 95.48C446.499 95.32 446.151 95.24 445.767 95.24C445.215 95.24 444.743 95.416 444.351 95.768C443.967 96.12 443.747 96.608 443.691 97.232H447.843ZM458.32 94.304C458.832 94.304 459.288 94.412 459.688 94.628C460.088 94.836 460.404 95.152 460.636 95.576C460.868 96 460.984 96.516 460.984 97.124V101H459.904V97.28C459.904 96.624 459.74 96.124 459.412 95.78C459.092 95.428 458.656 95.252 458.104 95.252C457.536 95.252 457.084 95.436 456.748 95.804C456.412 96.164 456.244 96.688 456.244 97.376V101H455.164V97.28C455.164 96.624 455 96.124 454.672 95.78C454.352 95.428 453.916 95.252 453.364 95.252C452.796 95.252 452.344 95.436 452.008 95.804C451.672 96.164 451.504 96.688 451.504 97.376V101H450.412V94.424H451.504V95.372C451.72 95.028 452.008 94.764 452.368 94.58C452.736 94.396 453.14 94.304 453.58 94.304C454.132 94.304 454.62 94.428 455.044 94.676C455.468 94.924 455.784 95.288 455.992 95.768C456.176 95.304 456.48 94.944 456.904 94.688C457.328 94.432 457.8 94.304 458.32 94.304ZM462.368 97.688C462.368 97.016 462.504 96.428 462.776 95.924C463.048 95.412 463.42 95.016 463.892 94.736C464.372 94.456 464.904 94.316 465.488 94.316C466.064 94.316 466.564 94.44 466.988 94.688C467.412 94.936 467.728 95.248 467.936 95.624V94.424H469.04V101H467.936V99.776C467.72 100.16 467.396 100.48 466.964 100.736C466.54 100.984 466.044 101.108 465.476 101.108C464.892 101.108 464.364 100.964 463.892 100.676C463.42 100.388 463.048 99.984 462.776 99.464C462.504 98.944 462.368 98.352 462.368 97.688ZM467.936 97.7C467.936 97.204 467.836 96.772 467.636 96.404C467.436 96.036 467.164 95.756 466.82 95.564C466.484 95.364 466.112 95.264 465.704 95.264C465.296 95.264 464.924 95.36 464.588 95.552C464.252 95.744 463.984 96.024 463.784 96.392C463.584 96.76 463.484 97.192 463.484 97.688C463.484 98.192 463.584 98.632 463.784 99.008C463.984 99.376 464.252 99.66 464.588 99.86C464.924 100.052 465.296 100.148 465.704 100.148C466.112 100.148 466.484 100.052 466.82 99.86C467.164 99.66 467.436 99.376 467.636 99.008C467.836 98.632 467.936 98.196 467.936 97.7ZM471.977 92.12V101H470.885V92.12H471.977ZM479.838 97.46C479.838 97.668 479.826 97.888 479.802 98.12H474.546C474.586 98.768 474.806 99.276 475.206 99.644C475.614 100.004 476.106 100.184 476.682 100.184C477.154 100.184 477.546 100.076 477.858 99.86C478.178 99.636 478.402 99.34 478.53 98.972H479.706C479.53 99.604 479.178 100.12 478.65 100.52C478.122 100.912 477.466 101.108 476.682 101.108C476.058 101.108 475.498 100.968 475.002 100.688C474.514 100.408 474.13 100.012 473.85 99.5C473.57 98.98 473.43 98.38 473.43 97.7C473.43 97.02 473.566 96.424 473.838 95.912C474.11 95.4 474.49 95.008 474.978 94.736C475.474 94.456 476.042 94.316 476.682 94.316C477.306 94.316 477.858 94.452 478.338 94.724C478.818 94.996 479.186 95.372 479.442 95.852C479.706 96.324 479.838 96.86 479.838 97.46ZM478.71 97.232C478.71 96.816 478.618 96.46 478.434 96.164C478.25 95.86 477.998 95.632 477.678 95.48C477.366 95.32 477.018 95.24 476.634 95.24C476.082 95.24 475.61 95.416 475.218 95.768C474.834 96.12 474.614 96.608 474.558 97.232H478.71Z" fill="#A9A9A9"/>
<circle cx="421" cy="97" r="5" fill="#DF1AFF"/>
<defs>
<filter id="filter0_d_184_495" x="380" y="62" width="152" height="99" filterUnits="userSpaceOnUse" color-interpolation-filters="sRGB">
<feFlood flood-opacity="0" result="BackgroundImageFix"/>
<feColorMatrix in="SourceAlpha" type="matrix" values="0 0 0 0 0 0 0 0 0 0 0 0 0 0 0 0 0 0 127 0" result="hardAlpha"/>
<feOffset dy="4"/>
<feGaussianBlur stdDeviation="10"/>
<feComposite in2="hardAlpha" operator="out"/>
<feColorMatrix type="matrix" values="0 0 0 0 0 0 0 0 0 0 0 0 0 0 0 0 0 0 0.07 0"/>
<feBlend mode="normal" in2="BackgroundImageFix" result="effect1_dropShadow_184_495"/>
<feBlend mode="normal" in="SourceGraphic" in2="effect1_dropShadow_184_495" result="shape"/>
</filter>
</defs>
</svg>
