<svg width="148" height="38" viewBox="0 0 148 38" fill="none" xmlns="http://www.w3.org/2000/svg">
<rect width="38" height="38" rx="8" fill="#00E7BD"/>
<path d="M22.0522 33H15.9402C14.7607 33 13.7957 32.0349 13.7957 30.8553V27.8875H15.2244V30.8553C15.2244 31.2495 15.546 31.5712 15.9402 31.5712H22.0522C22.4464 31.5712 22.768 31.2495 22.768 30.8553V19.0008H24.1983V30.8553C24.1983 32.0349 23.2392 33 22.0522 33Z" fill="#E0FFEC"/>
<path d="M15.2244 19.0008H13.7957V7.14618C13.7957 5.9651 14.7607 5 15.9402 5H22.0522C23.2332 5 24.1983 5.9651 24.1983 7.14618V10.1125H22.768V7.14618C22.768 6.75198 22.4464 6.43028 22.0522 6.43028H15.9402C15.546 6.43028 15.2244 6.75198 15.2244 7.14618V19.0008Z" fill="white"/>
<path d="M19 24.2054H7.14606C5.96656 24.2054 5 23.2403 5 22.0607V15.9469C5 14.7673 5.96656 13.8022 7.14606 13.8022H10.1122V15.2325H7.14606C6.75189 15.2325 6.43021 15.5542 6.43021 15.9469V22.0607C6.43021 22.4534 6.75189 22.7766 7.14606 22.7766H19V24.2054Z" fill="white"/>
<path d="M30.8539 24.2054H27.8878V22.7766H30.8539C31.2481 22.7766 31.5698 22.4534 31.5698 22.0607V15.9469C31.5698 15.5542 31.2481 15.2325 30.8539 15.2325H19V13.8022H30.8539C32.0334 13.8022 33 14.7673 33 15.9469V22.0607C33 23.2403 32.0334 24.2054 30.8539 24.2054Z" fill="#E0FFEC"/>
<path d="M70.6 12.04V26H67.8V16.92L64.06 26H61.94L58.18 16.92V26H55.38V12.04H58.56L63 22.42L67.44 12.04H70.6ZM83.6683 20.22C83.6683 20.62 83.6416 20.98 83.5883 21.3H75.4883C75.5549 22.1 75.8349 22.7267 76.3283 23.18C76.8216 23.6333 77.4283 23.86 78.1483 23.86C79.1883 23.86 79.9283 23.4133 80.3683 22.52H83.3883C83.0683 23.5867 82.4549 24.4667 81.5483 25.16C80.6416 25.84 79.5283 26.18 78.2083 26.18C77.1416 26.18 76.1816 25.9467 75.3283 25.48C74.4883 25 73.8283 24.3267 73.3483 23.46C72.8816 22.5933 72.6483 21.5933 72.6483 20.46C72.6483 19.3133 72.8816 18.3067 73.3483 17.44C73.8149 16.5733 74.4683 15.9067 75.3083 15.44C76.1483 14.9733 77.1149 14.74 78.2083 14.74C79.2616 14.74 80.2016 14.9667 81.0283 15.42C81.8683 15.8733 82.5149 16.52 82.9683 17.36C83.4349 18.1867 83.6683 19.14 83.6683 20.22ZM80.7683 19.42C80.7549 18.7 80.4949 18.1267 79.9883 17.7C79.4816 17.26 78.8616 17.04 78.1283 17.04C77.4349 17.04 76.8483 17.2533 76.3683 17.68C75.9016 18.0933 75.6149 18.6733 75.5083 19.42H80.7683ZM84.992 20.42C84.992 19.3 85.212 18.3067 85.652 17.44C86.1054 16.5733 86.7187 15.9067 87.492 15.44C88.2654 14.9733 89.1254 14.74 90.072 14.74C90.792 14.74 91.4787 14.9 92.132 15.22C92.7854 15.5267 93.3054 15.94 93.692 16.46V11.2H96.532V26H93.692V24.36C93.3454 24.9067 92.8587 25.3467 92.232 25.68C91.6054 26.0133 90.8787 26.18 90.052 26.18C89.1187 26.18 88.2654 25.94 87.492 25.46C86.7187 24.98 86.1054 24.3067 85.652 23.44C85.212 22.56 84.992 21.5533 84.992 20.42ZM93.712 20.46C93.712 19.78 93.5787 19.2 93.312 18.72C93.0454 18.2267 92.6854 17.8533 92.232 17.6C91.7787 17.3333 91.292 17.2 90.772 17.2C90.252 17.2 89.772 17.3267 89.332 17.58C88.892 17.8333 88.532 18.2067 88.252 18.7C87.9854 19.18 87.852 19.7533 87.852 20.42C87.852 21.0867 87.9854 21.6733 88.252 22.18C88.532 22.6733 88.892 23.0533 89.332 23.32C89.7854 23.5867 90.2654 23.72 90.772 23.72C91.292 23.72 91.7787 23.5933 92.232 23.34C92.6854 23.0733 93.0454 22.7 93.312 22.22C93.5787 21.7267 93.712 21.14 93.712 20.46Z" fill="#00E7BD"/>
<path d="M98.5867 19C98.5867 17.6267 98.8934 16.4 99.5067 15.32C100.133 14.2267 100.98 13.38 102.047 12.78C103.127 12.1667 104.333 11.86 105.667 11.86C107.227 11.86 108.593 12.26 109.767 13.06C110.94 13.86 111.76 14.9667 112.227 16.38H109.007C108.687 15.7133 108.233 15.2133 107.647 14.88C107.073 14.5467 106.407 14.38 105.647 14.38C104.833 14.38 104.107 14.5733 103.467 14.96C102.84 15.3333 102.347 15.8667 101.987 16.56C101.64 17.2533 101.467 18.0667 101.467 19C101.467 19.92 101.64 20.7333 101.987 21.44C102.347 22.1333 102.84 22.6733 103.467 23.06C104.107 23.4333 104.833 23.62 105.647 23.62C106.407 23.62 107.073 23.4533 107.647 23.12C108.233 22.7733 108.687 22.2667 109.007 21.6H112.227C111.76 23.0267 110.94 24.14 109.767 24.94C108.607 25.7267 107.24 26.12 105.667 26.12C104.333 26.12 103.127 25.82 102.047 25.22C100.98 24.6067 100.133 23.76 99.5067 22.68C98.8934 21.6 98.5867 20.3733 98.5867 19ZM113.898 20.42C113.898 19.3 114.118 18.3067 114.558 17.44C115.012 16.5733 115.618 15.9067 116.378 15.44C117.152 14.9733 118.012 14.74 118.958 14.74C119.785 14.74 120.505 14.9067 121.118 15.24C121.745 15.5733 122.245 15.9933 122.618 16.5V14.92H125.438V26H122.618V24.38C122.258 24.9 121.758 25.3333 121.118 25.68C120.492 26.0133 119.765 26.18 118.938 26.18C118.005 26.18 117.152 25.94 116.378 25.46C115.618 24.98 115.012 24.3067 114.558 23.44C114.118 22.56 113.898 21.5533 113.898 20.42ZM122.618 20.46C122.618 19.78 122.485 19.2 122.218 18.72C121.952 18.2267 121.592 17.8533 121.138 17.6C120.685 17.3333 120.198 17.2 119.678 17.2C119.158 17.2 118.678 17.3267 118.238 17.58C117.798 17.8333 117.438 18.2067 117.158 18.7C116.892 19.18 116.758 19.7533 116.758 20.42C116.758 21.0867 116.892 21.6733 117.158 22.18C117.438 22.6733 117.798 23.0533 118.238 23.32C118.692 23.5867 119.172 23.72 119.678 23.72C120.198 23.72 120.685 23.5933 121.138 23.34C121.592 23.0733 121.952 22.7 122.218 22.22C122.485 21.7267 122.618 21.14 122.618 20.46ZM130.973 16.64C131.333 16.0533 131.8 15.5933 132.373 15.26C132.96 14.9267 133.626 14.76 134.373 14.76V17.7H133.633C132.753 17.7 132.086 17.9067 131.633 18.32C131.193 18.7333 130.973 19.4533 130.973 20.48V26H128.173V14.92H130.973V16.64ZM146.559 20.22C146.559 20.62 146.532 20.98 146.479 21.3H138.379C138.446 22.1 138.726 22.7267 139.219 23.18C139.712 23.6333 140.319 23.86 141.039 23.86C142.079 23.86 142.819 23.4133 143.259 22.52H146.279C145.959 23.5867 145.346 24.4667 144.439 25.16C143.532 25.84 142.419 26.18 141.099 26.18C140.032 26.18 139.072 25.9467 138.219 25.48C137.379 25 136.719 24.3267 136.239 23.46C135.772 22.5933 135.539 21.5933 135.539 20.46C135.539 19.3133 135.772 18.3067 136.239 17.44C136.706 16.5733 137.359 15.9067 138.199 15.44C139.039 14.9733 140.006 14.74 141.099 14.74C142.152 14.74 143.092 14.9667 143.919 15.42C144.759 15.8733 145.406 16.52 145.859 17.36C146.326 18.1867 146.559 19.14 146.559 20.22ZM143.659 19.42C143.646 18.7 143.386 18.1267 142.879 17.7C142.372 17.26 141.752 17.04 141.019 17.04C140.326 17.04 139.739 17.2533 139.259 17.68C138.792 18.0933 138.506 18.6733 138.399 19.42H143.659Z" fill="#7D7D7D"/>
</svg>