<svg width="18" height="18" viewBox="0 0 18 18" fill="none" xmlns="http://www.w3.org/2000/svg">
<path d="M4.2 0V6M13.8 0V6M3.6 9H7.2M14.4 9H10.8M3.6 12.6H7.2M10.8 12.6H14.4M1.8 3H16.2C16.5183 3 16.8235 3.12643 17.0485 3.35147C17.2736 3.57652 17.4 3.88174 17.4 4.2V16.2C17.4 16.5183 17.2736 16.8235 17.0485 17.0485C16.8235 17.2736 16.5183 17.4 16.2 17.4H1.8C1.48174 17.4 1.17651 17.2736 0.95147 17.0485C0.726427 16.8235 0.599998 16.5183 0.599998 16.2V4.2C0.599998 3.88174 0.726427 3.57652 0.95147 3.35147C1.17651 3.12643 1.48174 3 1.8 3Z" stroke="#676767" stroke-width="1.5"/>
</svg>