<svg width="18" height="18" viewBox="0 0 18 18" fill="none" xmlns="http://www.w3.org/2000/svg">
<g clip-path="url(#clip0_184_414)">
<path d="M4.19998 0V6M13.8 0V6M3.59998 9H7.19998M14.4 9H10.8M3.59998 12.6H7.19998M10.8 12.6H14.4M1.79998 3H16.2C16.5182 3 16.8235 3.12643 17.0485 3.35147C17.2735 3.57652 17.4 3.88174 17.4 4.2V16.2C17.4 16.5183 17.2735 16.8235 17.0485 17.0485C16.8235 17.2736 16.5182 17.4 16.2 17.4H1.79998C1.48172 17.4 1.17649 17.2736 0.951447 17.0485C0.726404 16.8235 0.599976 16.5183 0.599976 16.2V4.2C0.599976 3.88174 0.726404 3.57652 0.951447 3.35147C1.17649 3.12643 1.48172 3 1.79998 3Z" stroke="#FF8E26" stroke-width="1.5"/>
</g>
<defs>
<clipPath id="clip0_184_414">
<rect width="18" height="18" fill="white"/>
</clipPath>
</defs>
</svg>
