<svg width="20" height="19" viewBox="0 0 20 19" fill="none" xmlns="http://www.w3.org/2000/svg">
<path d="M6.0625 5.25H5C3.11438 5.25 2.17157 5.25 1.58579 5.83579C1 6.42157 1 7.36438 1 9.25V14.1875C1 16.0731 1 17.0159 1.58579 17.6017C2.17157 18.1875 3.11438 18.1875 5 18.1875H15C16.8856 18.1875 17.8284 18.1875 18.4142 17.6017C19 17.0159 19 16.0731 19 14.1875V9.25C19 7.36438 19 6.42157 18.4142 5.83579C17.8284 5.25 16.8856 5.25 15 5.25H13.9375M6.0625 5.25V4.3125C6.0625 2.89829 6.0625 2.19118 6.50184 1.75184C6.94118 1.3125 7.64829 1.3125 9.0625 1.3125H10.9375C12.3517 1.3125 13.0588 1.3125 13.4982 1.75184C13.9375 2.19118 13.9375 2.89829 13.9375 4.3125V5.25M6.0625 5.25H13.9375" stroke="#676767" stroke-width="1.5"/>
<path d="M8.7986 8.58336C8.73438 8.73842 8.73438 8.93499 8.73438 9.32812V10.1314C8.73438 10.1505 8.73438 10.16 8.72844 10.1659C8.72251 10.1719 8.71297 10.1719 8.69388 10.1719H7.89062C7.49749 10.1719 7.30092 10.1719 7.14586 10.2361C6.93912 10.3217 6.77486 10.486 6.68923 10.6927C6.625 10.8478 6.625 11.0444 6.625 11.4375C6.625 11.8306 6.625 12.0272 6.68923 12.1823C6.77486 12.389 6.93912 12.5533 7.14586 12.6389C7.30092 12.7031 7.49749 12.7031 7.89062 12.7031H8.69388C8.71297 12.7031 8.72251 12.7031 8.72844 12.7091C8.73438 12.715 8.73438 12.7245 8.73438 12.7436V13.5469C8.73438 13.94 8.73438 14.1366 8.7986 14.2916C8.88424 14.4984 9.04849 14.6626 9.25524 14.7483C9.41029 14.8125 9.60686 14.8125 10 14.8125C10.3931 14.8125 10.5897 14.8125 10.7448 14.7483C10.9515 14.6626 11.1158 14.4984 11.2014 14.2916C11.2656 14.1366 11.2656 13.94 11.2656 13.5469V12.7436C11.2656 12.7245 11.2656 12.715 11.2716 12.7091C11.2775 12.7031 11.287 12.7031 11.3061 12.7031H12.1094C12.5025 12.7031 12.6991 12.7031 12.8541 12.6389C13.0609 12.5533 13.2251 12.389 13.3108 12.1823C13.375 12.0272 13.375 11.8306 13.375 11.4375C13.375 11.0444 13.375 10.8478 13.3108 10.6927C13.2251 10.486 13.0609 10.3217 12.8541 10.2361C12.6991 10.1719 12.5025 10.1719 12.1094 10.1719H11.3061C11.287 10.1719 11.2775 10.1719 11.2716 10.1659C11.2656 10.16 11.2656 10.1505 11.2656 10.1314V9.32812C11.2656 8.93499 11.2656 8.73842 11.2014 8.58336C11.1158 8.37662 10.9515 8.21236 10.7448 8.12673C10.5897 8.0625 10.3931 8.0625 10 8.0625C9.60686 8.0625 9.41029 8.0625 9.25524 8.12673C9.04849 8.21236 8.88424 8.37662 8.7986 8.58336Z" fill="#676767"/>
</svg>
