<svg width="18" height="19" viewBox="0 0 18 19" fill="#676767" xmlns="http://www.w3.org/2000/svg">
<path d="M18 17.7337C18 17.9989 17.8946 18.2533 17.7071 18.4408C17.5196 18.6283 17.2652 18.7337 17 18.7337H1C0.734784 18.7337 0.48043 18.6283 0.292893 18.4408C0.105357 18.2533 2.4071e-07 17.9989 2.4071e-07 17.7337V7.22369C-0.000105484 7.07131 0.0346172 6.92091 0.101516 6.78399C0.168415 6.64708 0.26572 6.52726 0.386 6.43369L8.386 0.210694C8.56154 0.0741395 8.7776 0 9 0C9.2224 0 9.43846 0.0741395 9.614 0.210694L17.614 6.43369C17.7343 6.52726 17.8316 6.64708 17.8985 6.78399C17.9654 6.92091 18.0001 7.07131 18 7.22369V17.7337ZM16 16.7337V7.71169L9 2.26769L2 7.71169V16.7337H16Z" fill="#0E3932"/>
</svg>