<svg width="6" height="20" viewBox="0 0 6 20" fill="none" xmlns="http://www.w3.org/2000/svg">
    <path d="M4.5 2.5C4.5 1.67157 3.8284 1 3 1C2.1716 1 1.5 1.67157 1.5 2.5C1.5 3.32843 2.1716 4 3 4C3.8284 4 4.5 3.32843 4.5 2.5Z" stroke="#676767" stroke-width="1.5"/>
    <path d="M4.5 10C4.5 9.1716 3.8284 8.5 3 8.5C2.1716 8.5 1.5 9.1716 1.5 10C1.5 10.8284 2.1716 11.5 3 11.5C3.8284 11.5 4.5 10.8284 4.5 10Z" stroke="#676767" stroke-width="1.5"/>
    <path d="M4.5 17.5C4.5 16.6716 3.8284 16 3 16C2.1716 16 1.5 16.6716 1.5 17.5C1.5 18.3284 2.1716 19 3 19C3.8284 19 4.5 18.3284 4.5 17.5Z" stroke="#676767" stroke-width="1.5"/>
</svg>