<svg width="22" height="22" viewBox="0 0 22 22" fill="none" xmlns="http://www.w3.org/2000/svg">
<path d="M16.4999 7.25084C16.4724 7.25084 16.454 7.25084 16.4265 7.25084H16.3807C14.6482 7.19584 13.3557 5.8575 13.3557 4.2075C13.3557 2.52083 14.7307 1.155 16.4082 1.155C18.0857 1.155 19.4607 2.53 19.4607 4.2075C19.4515 5.86667 18.159 7.205 16.509 7.26C16.509 7.25084 16.509 7.25084 16.4999 7.25084ZM16.4082 2.52084C15.4824 2.52084 14.7307 3.27251 14.7307 4.19834C14.7307 5.10584 15.4365 5.83917 16.344 5.87584C16.3532 5.86667 16.4265 5.86667 16.509 5.87584C17.3982 5.83001 18.0857 5.09667 18.0949 4.19834C18.0949 3.27251 17.3432 2.52084 16.4082 2.52084Z" fill="#676767"/>
<path d="M16.5091 14.0067C16.1516 14.0067 15.7941 13.9792 15.4366 13.915C15.0608 13.8509 14.8133 13.4934 14.8775 13.1175C14.9416 12.7417 15.2991 12.4942 15.675 12.5584C16.8025 12.7509 17.9941 12.54 18.7916 12.0084C19.2225 11.7242 19.4516 11.3667 19.4516 11.0092C19.4516 10.6517 19.2133 10.3034 18.7916 10.0192C17.9941 9.48753 16.7841 9.2767 15.6475 9.47837C15.2716 9.5517 14.9141 9.29503 14.85 8.9192C14.7858 8.54337 15.0333 8.18587 15.4091 8.1217C16.9033 7.85587 18.4525 8.14003 19.5525 8.87336C20.3591 9.4142 20.8266 10.1842 20.8266 11.0092C20.8266 11.825 20.3683 12.6042 19.5525 13.1542C18.7183 13.7042 17.6366 14.0067 16.5091 14.0067Z" fill="#676767"/>
<path d="M5.47246 7.25085C5.46329 7.25085 5.45412 7.25085 5.45412 7.25085C3.80412 7.19585 2.51162 5.85751 2.50246 4.20751C2.50246 2.52084 3.87746 1.14584 5.55496 1.14584C7.23246 1.14584 8.60746 2.52085 8.60746 4.19835C8.60746 5.85751 7.31496 7.19585 5.66496 7.25085L5.47246 6.56335L5.53662 7.25085C5.51829 7.25085 5.49079 7.25085 5.47246 7.25085ZM5.56412 5.87585C5.61912 5.87585 5.66496 5.87584 5.71996 5.88501C6.53579 5.84834 7.25079 5.11501 7.25079 4.20751C7.25079 3.28167 6.49913 2.53001 5.57329 2.53001C4.64746 2.53001 3.89579 3.28167 3.89579 4.20751C3.89579 5.10584 4.59246 5.83001 5.48162 5.88501C5.49079 5.87584 5.52746 5.87585 5.56412 5.87585Z" fill="#676767"/>
<path d="M5.46336 14.0067C4.33586 14.0067 3.25419 13.7042 2.42002 13.1542C1.61336 12.6134 1.14586 11.8342 1.14586 11.0092C1.14586 10.1934 1.61336 9.4142 2.42002 8.87336C3.52003 8.14003 5.06919 7.85587 6.56336 8.1217C6.93919 8.18587 7.18669 8.54337 7.12253 8.9192C7.05836 9.29503 6.70086 9.5517 6.32503 9.47837C5.18836 9.2767 3.98753 9.48753 3.18086 10.0192C2.75003 10.3034 2.52086 10.6517 2.52086 11.0092C2.52086 11.3667 2.75919 11.7242 3.18086 12.0084C3.97836 12.54 5.17002 12.7509 6.29752 12.5584C6.67336 12.4942 7.03086 12.7509 7.09503 13.1175C7.15919 13.4934 6.91169 13.8509 6.53586 13.915C6.17836 13.9792 5.82086 14.0067 5.46336 14.0067Z" fill="#676767"/>
<path d="M10.9999 14.0983C10.9724 14.0983 10.954 14.0983 10.9265 14.0983H10.8807C9.1482 14.0433 7.8557 12.705 7.8557 11.055C7.8557 9.36831 9.2307 8.00247 10.9082 8.00247C12.5857 8.00247 13.9607 9.37747 13.9607 11.055C13.9515 12.7141 12.659 14.0525 11.009 14.1075C11.009 14.0983 11.009 14.0983 10.9999 14.0983ZM10.9082 9.36831C9.98237 9.36831 9.2307 10.12 9.2307 11.0458C9.2307 11.9533 9.93653 12.6866 10.844 12.7233C10.8532 12.7141 10.9265 12.7141 11.009 12.7233C11.8982 12.6775 12.5857 11.9441 12.5949 11.0458C12.5949 10.1291 11.8432 9.36831 10.9082 9.36831Z" fill="#676767"/>
<path d="M10.9998 20.8633C9.89978 20.8633 8.79978 20.5792 7.94728 20.0017C7.14061 19.4608 6.67311 18.6908 6.67311 17.8658C6.67311 17.05 7.13144 16.2616 7.94728 15.7208C9.66144 14.5841 12.3473 14.5841 14.0523 15.7208C14.8589 16.2616 15.3264 17.0317 15.3264 17.8567C15.3264 18.6725 14.8681 19.4608 14.0523 20.0017C13.1998 20.57 12.0998 20.8633 10.9998 20.8633ZM8.70811 16.8758C8.27728 17.16 8.04811 17.5175 8.04811 17.875C8.04811 18.2325 8.28645 18.5808 8.70811 18.865C9.94561 19.6992 12.0448 19.6992 13.2823 18.865C13.7131 18.5808 13.9423 18.2233 13.9423 17.8658C13.9423 17.5083 13.7039 17.16 13.2823 16.8758C12.0539 16.0417 9.95478 16.0508 8.70811 16.8758Z" fill="#676767"/>
</svg>