<svg width="20" height="20" viewBox="0 0 20 20" fill="none" xmlns="http://www.w3.org/2000/svg">
<path d="M12.5 10.7917H6.66666C6.325 10.7917 6.04166 10.5083 6.04166 10.1667C6.04166 9.82499 6.325 9.54166 6.66666 9.54166H12.5C12.8417 9.54166 13.125 9.82499 13.125 10.1667C13.125 10.5083 12.8417 10.7917 12.5 10.7917Z" fill="#676767"/>
<path d="M10.3167 14.125H6.66666C6.325 14.125 6.04166 13.8417 6.04166 13.5C6.04166 13.1583 6.325 12.875 6.66666 12.875H10.3167C10.6583 12.875 10.9417 13.1583 10.9417 13.5C10.9417 13.8417 10.6583 14.125 10.3167 14.125Z" fill="#676767"/>
<path d="M11.6667 5.625H8.33333C7.53333 5.625 6.04166 5.625 6.04166 3.33333C6.04166 1.04166 7.53333 1.04166 8.33333 1.04166H11.6667C12.4667 1.04166 13.9583 1.04166 13.9583 3.33333C13.9583 4.13333 13.9583 5.625 11.6667 5.625ZM8.33333 2.29166C7.50833 2.29166 7.29166 2.29166 7.29166 3.33333C7.29166 4.375 7.50833 4.375 8.33333 4.375H11.6667C12.7083 4.375 12.7083 4.15833 12.7083 3.33333C12.7083 2.29166 12.4917 2.29166 11.6667 2.29166H8.33333Z" fill="#676767"/>
<path d="M12.5 18.9583H7.5C2.81667 18.9583 1.875 16.8083 1.875 13.3333V8.33332C1.875 4.53332 3.25 2.90832 6.63333 2.73332C6.96667 2.71666 7.275 2.97499 7.29167 3.32499C7.30833 3.67499 7.04167 3.95832 6.7 3.97499C4.33333 4.10832 3.125 4.81666 3.125 8.33332V13.3333C3.125 16.4167 3.73333 17.7083 7.5 17.7083H12.5C16.2667 17.7083 16.875 16.4167 16.875 13.3333V8.33332C16.875 4.81666 15.6667 4.10832 13.3 3.97499C12.9583 3.95832 12.6917 3.65832 12.7083 3.31666C12.725 2.97499 13.025 2.70832 13.3667 2.72499C16.75 2.90832 18.125 4.53332 18.125 8.32499V13.325C18.125 16.8083 17.1833 18.9583 12.5 18.9583Z" fill="#676767"/>
</svg>
